  0
SECTION
  2
HEADER
  9
$ACADVER
  1
AC1009
  9
$FILLMODE
 70
 0
  9
$SPLFRAME
 70
 1
  9
$EXTMIN
 10
0
 20
0
 30
0.0
  9
$EXTMAX
 10
1058.33
 20
1058.33
 30
0.0
  0
ENDSEC
  0
SECTION
  2
TABLES
  0
TABLE
  2
LAYER
 70
1
  0
LAYER
  2
0
 70
     0
 62
     7
  6
CONTINUOUS
  0
ENDTAB
  0
ENDSEC
  0
SECTION
  2
ENTITIES
  0
LINE
  8
0
 62
     0
 10
233.696
 20
84.5714
 30
0.0
 11
233.932
 21
84.5619
 31
0.0
  0
LINE
  8
0
 62
     0
 10
233.932
 20
84.5619
 30
0.0
 11
234.166
 21
84.5358
 31
0.0
  0
LINE
  8
0
 62
     0
 10
234.166
 20
84.5358
 30
0.0
 11
234.396
 21
84.4889
 31
0.0
  0
LINE
  8
0
 62
     0
 10
234.396
 20
84.4889
 30
0.0
 11
234.623
 21
84.4254
 31
0.0
  0
LINE
  8
0
 62
     0
 10
234.623
 20
84.4254
 30
0.0
 11
234.844
 21
84.3428
 31
0.0
  0
LINE
  8
0
 62
     0
 10
234.844
 20
84.3428
 30
0.0
 11
235.058
 21
84.2451
 31
0.0
  0
LINE
  8
0
 62
     0
 10
235.058
 20
84.2451
 30
0.0
 11
235.263
 21
84.1294
 31
0.0
  0
LINE
  8
0
 62
     0
 10
235.263
 20
84.1294
 30
0.0
 11
235.46
 21
83.9996
 31
0.0
  0
LINE
  8
0
 62
     0
 10
235.46
 20
83.9996
 30
0.0
 11
235.645
 21
83.8535
 31
0.0
  0
LINE
  8
0
 62
     0
 10
235.645
 20
83.8535
 30
0.0
 11
235.818
 21
83.6937
 31
0.0
  0
LINE
  8
0
 62
     0
 10
235.818
 20
83.6937
 30
0.0
 11
235.978
 21
83.5201
 31
0.0
  0
LINE
  8
0
 62
     0
 10
235.978
 20
83.5201
 30
0.0
 11
236.124
 21
83.3356
 31
0.0
  0
LINE
  8
0
 62
     0
 10
236.124
 20
83.3356
 30
0.0
 11
236.254
 21
83.1398
 31
0.0
  0
LINE
  8
0
 62
     0
 10
236.254
 20
83.1398
 30
0.0
 11
236.369
 21
82.9331
 31
0.0
  0
LINE
  8
0
 62
     0
 10
236.369
 20
82.9331
 30
0.0
 11
236.467
 21
82.7193
 31
0.0
  0
LINE
  8
0
 62
     0
 10
236.467
 20
82.7193
 30
0.0
 11
236.55
 21
82.4988
 31
0.0
  0
LINE
  8
0
 62
     0
 10
236.55
 20
82.4988
 30
0.0
 11
236.613
 21
82.2717
 31
0.0
  0
LINE
  8
0
 62
     0
 10
236.613
 20
82.2717
 30
0.0
 11
236.66
 21
82.0416
 31
0.0
  0
LINE
  8
0
 62
     0
 10
236.66
 20
82.0416
 30
0.0
 11
236.686
 21
81.8074
 31
0.0
  0
LINE
  8
0
 62
     0
 10
236.686
 20
81.8074
 30
0.0
 11
236.696
 21
81.5717
 31
0.0
  0
LINE
  8
0
 62
     0
 10
236.696
 20
81.5717
 30
0.0
 11
236.696
 21
3.37068
 31
0.0
  0
LINE
  8
0
 62
     0
 10
236.696
 20
3.37068
 30
0.0
 11
236.686
 21
3.13504
 31
0.0
  0
LINE
  8
0
 62
     0
 10
236.686
 20
3.13504
 30
0.0
 11
236.66
 21
2.90077
 31
0.0
  0
LINE
  8
0
 62
     0
 10
236.66
 20
2.90077
 30
0.0
 11
236.613
 21
2.67064
 31
0.0
  0
LINE
  8
0
 62
     0
 10
236.613
 20
2.67064
 30
0.0
 11
236.55
 21
2.44326
 31
0.0
  0
LINE
  8
0
 62
     0
 10
236.55
 20
2.44326
 30
0.0
 11
236.467
 21
2.22278
 31
0.0
  0
LINE
  8
0
 62
     0
 10
236.467
 20
2.22278
 30
0.0
 11
236.369
 21
2.00918
 31
0.0
  0
LINE
  8
0
 62
     0
 10
236.369
 20
2.00918
 30
0.0
 11
236.254
 21
1.80385
 31
0.0
  0
LINE
  8
0
 62
     0
 10
236.254
 20
1.80385
 30
0.0
 11
236.124
 21
1.60679
 31
0.0
  0
LINE
  8
0
 62
     0
 10
236.124
 20
1.60679
 30
0.0
 11
235.978
 21
1.42214
 31
0.0
  0
LINE
  8
0
 62
     0
 10
235.978
 20
1.42214
 30
0.0
 11
235.818
 21
1.2485
 31
0.0
  0
LINE
  8
0
 62
     0
 10
235.818
 20
1.2485
 30
0.0
 11
235.645
 21
1.08865
 31
0.0
  0
LINE
  8
0
 62
     0
 10
235.645
 20
1.08865
 30
0.0
 11
235.46
 21
0.94258
 31
0.0
  0
LINE
  8
0
 62
     0
 10
235.46
 20
0.94258
 30
0.0
 11
235.263
 21
0.813043
 31
0.0
  0
LINE
  8
0
 62
     0
 10
235.263
 20
0.813043
 30
0.0
 11
235.058
 21
0.697286
 31
0.0
  0
LINE
  8
0
 62
     0
 10
235.058
 20
0.697286
 30
0.0
 11
234.844
 21
0.599447
 31
0.0
  0
LINE
  8
0
 62
     0
 10
234.844
 20
0.599447
 30
0.0
 11
234.623
 21
0.516763
 31
0.0
  0
LINE
  8
0
 62
     0
 10
234.623
 20
0.516763
 30
0.0
 11
234.396
 21
0.453376
 31
0.0
  0
LINE
  8
0
 62
     0
 10
234.396
 20
0.453376
 30
0.0
 11
234.166
 21
0.40652
 31
0.0
  0
LINE
  8
0
 62
     0
 10
234.166
 20
0.40652
 30
0.0
 11
233.932
 21
0.38034
 31
0.0
  0
LINE
  8
0
 62
     0
 10
233.932
 20
0.38034
 30
0.0
 11
233.696
 21
0.370692
 31
0.0
  0
LINE
  8
0
 62
     0
 10
233.696
 20
0.370692
 30
0.0
 11
3.09507
 21
0.370692
 31
0.0
  0
LINE
  8
0
 62
     0
 10
3.09507
 20
0.370692
 30
0.0
 11
2.85943
 21
0.38034
 31
0.0
  0
LINE
  8
0
 62
     0
 10
2.85943
 20
0.38034
 30
0.0
 11
2.62516
 21
0.40652
 31
0.0
  0
LINE
  8
0
 62
     0
 10
2.62516
 20
0.40652
 30
0.0
 11
2.39503
 21
0.453376
 31
0.0
  0
LINE
  8
0
 62
     0
 10
2.39503
 20
0.453376
 30
0.0
 11
2.16765
 21
0.516763
 31
0.0
  0
LINE
  8
0
 62
     0
 10
2.16765
 20
0.516763
 30
0.0
 11
1.94717
 21
0.599447
 31
0.0
  0
LINE
  8
0
 62
     0
 10
1.94717
 20
0.599447
 30
0.0
 11
1.73357
 21
0.697286
 31
0.0
  0
LINE
  8
0
 62
     0
 10
1.73357
 20
0.697286
 30
0.0
 11
1.52687
 21
0.813043
 31
0.0
  0
LINE
  8
0
 62
     0
 10
1.52687
 20
0.813043
 30
0.0
 11
1.33119
 21
0.94258
 31
0.0
  0
LINE
  8
0
 62
     0
 10
1.33119
 20
0.94258
 30
0.0
 11
1.14653
 21
1.08865
 31
0.0
  0
LINE
  8
0
 62
     0
 10
1.14653
 20
1.08865
 30
0.0
 11
0.972894
 21
1.2485
 31
0.0
  0
LINE
  8
0
 62
     0
 10
0.972894
 20
1.2485
 30
0.0
 11
0.813043
 21
1.42214
 31
0.0
  0
LINE
  8
0
 62
     0
 10
0.813043
 20
1.42214
 30
0.0
 11
0.666972
 21
1.60679
 31
0.0
  0
LINE
  8
0
 62
     0
 10
0.666972
 20
1.60679
 30
0.0
 11
0.537436
 21
1.80385
 31
0.0
  0
LINE
  8
0
 62
     0
 10
0.537436
 20
1.80385
 30
0.0
 11
0.421679
 21
2.00918
 31
0.0
  0
LINE
  8
0
 62
     0
 10
0.421679
 20
2.00918
 30
0.0
 11
0.323839
 21
2.22278
 31
0.0
  0
LINE
  8
0
 62
     0
 10
0.323839
 20
2.22278
 30
0.0
 11
0.241157
 21
2.44326
 31
0.0
  0
LINE
  8
0
 62
     0
 10
0.241157
 20
2.44326
 30
0.0
 11
0.177767
 21
2.67064
 31
0.0
  0
LINE
  8
0
 62
     0
 10
0.177767
 20
2.67064
 30
0.0
 11
0.130914
 21
2.90077
 31
0.0
  0
LINE
  8
0
 62
     0
 10
0.130914
 20
2.90077
 30
0.0
 11
0.104731
 21
3.13504
 31
0.0
  0
LINE
  8
0
 62
     0
 10
0.104731
 20
3.13504
 30
0.0
 11
0.0950846
 21
3.37068
 31
0.0
  0
LINE
  8
0
 62
     0
 10
0.0950846
 20
3.37068
 30
0.0
 11
0.0950846
 21
81.5717
 31
0.0
  0
LINE
  8
0
 62
     0
 10
0.0950846
 20
81.5717
 30
0.0
 11
0.104731
 21
81.8074
 31
0.0
  0
LINE
  8
0
 62
     0
 10
0.104731
 20
81.8074
 30
0.0
 11
0.130914
 21
82.0416
 31
0.0
  0
LINE
  8
0
 62
     0
 10
0.130914
 20
82.0416
 30
0.0
 11
0.177767
 21
82.2717
 31
0.0
  0
LINE
  8
0
 62
     0
 10
0.177767
 20
82.2717
 30
0.0
 11
0.241157
 21
82.4988
 31
0.0
  0
LINE
  8
0
 62
     0
 10
0.241157
 20
82.4988
 30
0.0
 11
0.323839
 21
82.7193
 31
0.0
  0
LINE
  8
0
 62
     0
 10
0.323839
 20
82.7193
 30
0.0
 11
0.421679
 21
82.9331
 31
0.0
  0
LINE
  8
0
 62
     0
 10
0.421679
 20
82.9331
 30
0.0
 11
0.537436
 21
83.1398
 31
0.0
  0
LINE
  8
0
 62
     0
 10
0.537436
 20
83.1398
 30
0.0
 11
0.666972
 21
83.3356
 31
0.0
  0
LINE
  8
0
 62
     0
 10
0.666972
 20
83.3356
 30
0.0
 11
0.813043
 21
83.5201
 31
0.0
  0
LINE
  8
0
 62
     0
 10
0.813043
 20
83.5201
 30
0.0
 11
0.972894
 21
83.6937
 31
0.0
  0
LINE
  8
0
 62
     0
 10
0.972894
 20
83.6937
 30
0.0
 11
1.14653
 21
83.8535
 31
0.0
  0
LINE
  8
0
 62
     0
 10
1.14653
 20
83.8535
 30
0.0
 11
1.33119
 21
83.9996
 31
0.0
  0
LINE
  8
0
 62
     0
 10
1.33119
 20
83.9996
 30
0.0
 11
1.52687
 21
84.1294
 31
0.0
  0
LINE
  8
0
 62
     0
 10
1.52687
 20
84.1294
 30
0.0
 11
1.73357
 21
84.2451
 31
0.0
  0
LINE
  8
0
 62
     0
 10
1.73357
 20
84.2451
 30
0.0
 11
1.94717
 21
84.3428
 31
0.0
  0
LINE
  8
0
 62
     0
 10
1.94717
 20
84.3428
 30
0.0
 11
2.16765
 21
84.4254
 31
0.0
  0
LINE
  8
0
 62
     0
 10
2.16765
 20
84.4254
 30
0.0
 11
2.39503
 21
84.4889
 31
0.0
  0
LINE
  8
0
 62
     0
 10
2.39503
 20
84.4889
 30
0.0
 11
2.62516
 21
84.5358
 31
0.0
  0
LINE
  8
0
 62
     0
 10
2.62516
 20
84.5358
 30
0.0
 11
2.85943
 21
84.5619
 31
0.0
  0
LINE
  8
0
 62
     0
 10
2.85943
 20
84.5619
 30
0.0
 11
3.09507
 21
84.5714
 31
0.0
  0
LINE
  8
0
 62
     0
 10
3.09507
 20
84.5714
 30
0.0
 11
233.696
 21
84.5714
 31
0.0
  0
ENDSEC
  0
EOF
