  0
SECTION
  2
HEADER
  9
$ACADVER
  1
AC1009
  9
$FILLMODE
 70
 0
  9
$SPLFRAME
 70
 1
  9
$EXTMIN
 10
0
 20
0
 30
0.0
  9
$EXTMAX
 10
1058.33
 20
1058.33
 30
0.0
  0
ENDSEC
  0
SECTION
  2
TABLES
  0
TABLE
  2
LAYER
 70
1
  0
LAYER
  2
0
 70
     0
 62
     7
  6
CONTINUOUS
  0
ENDTAB
  0
ENDSEC
  0
SECTION
  2
ENTITIES
  0
LINE
  8
0
 62
     0
 10
233.696
 20
84.5714
 30
0.0
 11
233.932
 21
84.5619
 31
0.0
  0
LINE
  8
0
 62
     0
 10
233.932
 20
84.5619
 30
0.0
 11
234.166
 21
84.5358
 31
0.0
  0
LINE
  8
0
 62
     0
 10
234.166
 20
84.5358
 30
0.0
 11
234.396
 21
84.4889
 31
0.0
  0
LINE
  8
0
 62
     0
 10
234.396
 20
84.4889
 30
0.0
 11
234.623
 21
84.4254
 31
0.0
  0
LINE
  8
0
 62
     0
 10
234.623
 20
84.4254
 30
0.0
 11
234.844
 21
84.3428
 31
0.0
  0
LINE
  8
0
 62
     0
 10
234.844
 20
84.3428
 30
0.0
 11
235.058
 21
84.2451
 31
0.0
  0
LINE
  8
0
 62
     0
 10
235.058
 20
84.2451
 30
0.0
 11
235.263
 21
84.1294
 31
0.0
  0
LINE
  8
0
 62
     0
 10
235.263
 20
84.1294
 30
0.0
 11
235.46
 21
83.9996
 31
0.0
  0
LINE
  8
0
 62
     0
 10
235.46
 20
83.9996
 30
0.0
 11
235.645
 21
83.8535
 31
0.0
  0
LINE
  8
0
 62
     0
 10
235.645
 20
83.8535
 30
0.0
 11
235.818
 21
83.6937
 31
0.0
  0
LINE
  8
0
 62
     0
 10
235.818
 20
83.6937
 30
0.0
 11
235.978
 21
83.5201
 31
0.0
  0
LINE
  8
0
 62
     0
 10
235.978
 20
83.5201
 30
0.0
 11
236.124
 21
83.3356
 31
0.0
  0
LINE
  8
0
 62
     0
 10
236.124
 20
83.3356
 30
0.0
 11
236.254
 21
83.1398
 31
0.0
  0
LINE
  8
0
 62
     0
 10
236.254
 20
83.1398
 30
0.0
 11
236.369
 21
82.9331
 31
0.0
  0
LINE
  8
0
 62
     0
 10
236.369
 20
82.9331
 30
0.0
 11
236.467
 21
82.7193
 31
0.0
  0
LINE
  8
0
 62
     0
 10
236.467
 20
82.7193
 30
0.0
 11
236.55
 21
82.4988
 31
0.0
  0
LINE
  8
0
 62
     0
 10
236.55
 20
82.4988
 30
0.0
 11
236.613
 21
82.2717
 31
0.0
  0
LINE
  8
0
 62
     0
 10
236.613
 20
82.2717
 30
0.0
 11
236.66
 21
82.0416
 31
0.0
  0
LINE
  8
0
 62
     0
 10
236.66
 20
82.0416
 30
0.0
 11
236.686
 21
81.8074
 31
0.0
  0
LINE
  8
0
 62
     0
 10
236.686
 20
81.8074
 30
0.0
 11
236.696
 21
81.5717
 31
0.0
  0
LINE
  8
0
 62
     0
 10
236.696
 20
81.5717
 30
0.0
 11
236.696
 21
3.37068
 31
0.0
  0
LINE
  8
0
 62
     0
 10
236.696
 20
3.37068
 30
0.0
 11
236.686
 21
3.13504
 31
0.0
  0
LINE
  8
0
 62
     0
 10
236.686
 20
3.13504
 30
0.0
 11
236.66
 21
2.90077
 31
0.0
  0
LINE
  8
0
 62
     0
 10
236.66
 20
2.90077
 30
0.0
 11
236.613
 21
2.67064
 31
0.0
  0
LINE
  8
0
 62
     0
 10
236.613
 20
2.67064
 30
0.0
 11
236.55
 21
2.44326
 31
0.0
  0
LINE
  8
0
 62
     0
 10
236.55
 20
2.44326
 30
0.0
 11
236.467
 21
2.22278
 31
0.0
  0
LINE
  8
0
 62
     0
 10
236.467
 20
2.22278
 30
0.0
 11
236.369
 21
2.00918
 31
0.0
  0
LINE
  8
0
 62
     0
 10
236.369
 20
2.00918
 30
0.0
 11
236.254
 21
1.80385
 31
0.0
  0
LINE
  8
0
 62
     0
 10
236.254
 20
1.80385
 30
0.0
 11
236.124
 21
1.60679
 31
0.0
  0
LINE
  8
0
 62
     0
 10
236.124
 20
1.60679
 30
0.0
 11
235.978
 21
1.42214
 31
0.0
  0
LINE
  8
0
 62
     0
 10
235.978
 20
1.42214
 30
0.0
 11
235.818
 21
1.2485
 31
0.0
  0
LINE
  8
0
 62
     0
 10
235.818
 20
1.2485
 30
0.0
 11
235.645
 21
1.08865
 31
0.0
  0
LINE
  8
0
 62
     0
 10
235.645
 20
1.08865
 30
0.0
 11
235.46
 21
0.94258
 31
0.0
  0
LINE
  8
0
 62
     0
 10
235.46
 20
0.94258
 30
0.0
 11
235.263
 21
0.813043
 31
0.0
  0
LINE
  8
0
 62
     0
 10
235.263
 20
0.813043
 30
0.0
 11
235.058
 21
0.697286
 31
0.0
  0
LINE
  8
0
 62
     0
 10
235.058
 20
0.697286
 30
0.0
 11
234.844
 21
0.599447
 31
0.0
  0
LINE
  8
0
 62
     0
 10
234.844
 20
0.599447
 30
0.0
 11
234.623
 21
0.516763
 31
0.0
  0
LINE
  8
0
 62
     0
 10
234.623
 20
0.516763
 30
0.0
 11
234.396
 21
0.453376
 31
0.0
  0
LINE
  8
0
 62
     0
 10
234.396
 20
0.453376
 30
0.0
 11
234.166
 21
0.40652
 31
0.0
  0
LINE
  8
0
 62
     0
 10
234.166
 20
0.40652
 30
0.0
 11
233.932
 21
0.38034
 31
0.0
  0
LINE
  8
0
 62
     0
 10
233.932
 20
0.38034
 30
0.0
 11
233.696
 21
0.370692
 31
0.0
  0
LINE
  8
0
 62
     0
 10
233.696
 20
0.370692
 30
0.0
 11
3.09507
 21
0.370692
 31
0.0
  0
LINE
  8
0
 62
     0
 10
3.09507
 20
0.370692
 30
0.0
 11
2.85943
 21
0.38034
 31
0.0
  0
LINE
  8
0
 62
     0
 10
2.85943
 20
0.38034
 30
0.0
 11
2.62516
 21
0.40652
 31
0.0
  0
LINE
  8
0
 62
     0
 10
2.62516
 20
0.40652
 30
0.0
 11
2.39503
 21
0.453376
 31
0.0
  0
LINE
  8
0
 62
     0
 10
2.39503
 20
0.453376
 30
0.0
 11
2.16765
 21
0.516763
 31
0.0
  0
LINE
  8
0
 62
     0
 10
2.16765
 20
0.516763
 30
0.0
 11
1.94717
 21
0.599447
 31
0.0
  0
LINE
  8
0
 62
     0
 10
1.94717
 20
0.599447
 30
0.0
 11
1.73357
 21
0.697286
 31
0.0
  0
LINE
  8
0
 62
     0
 10
1.73357
 20
0.697286
 30
0.0
 11
1.52687
 21
0.813043
 31
0.0
  0
LINE
  8
0
 62
     0
 10
1.52687
 20
0.813043
 30
0.0
 11
1.33119
 21
0.94258
 31
0.0
  0
LINE
  8
0
 62
     0
 10
1.33119
 20
0.94258
 30
0.0
 11
1.14653
 21
1.08865
 31
0.0
  0
LINE
  8
0
 62
     0
 10
1.14653
 20
1.08865
 30
0.0
 11
0.972894
 21
1.2485
 31
0.0
  0
LINE
  8
0
 62
     0
 10
0.972894
 20
1.2485
 30
0.0
 11
0.813043
 21
1.42214
 31
0.0
  0
LINE
  8
0
 62
     0
 10
0.813043
 20
1.42214
 30
0.0
 11
0.666972
 21
1.60679
 31
0.0
  0
LINE
  8
0
 62
     0
 10
0.666972
 20
1.60679
 30
0.0
 11
0.537436
 21
1.80385
 31
0.0
  0
LINE
  8
0
 62
     0
 10
0.537436
 20
1.80385
 30
0.0
 11
0.421679
 21
2.00918
 31
0.0
  0
LINE
  8
0
 62
     0
 10
0.421679
 20
2.00918
 30
0.0
 11
0.323839
 21
2.22278
 31
0.0
  0
LINE
  8
0
 62
     0
 10
0.323839
 20
2.22278
 30
0.0
 11
0.241157
 21
2.44326
 31
0.0
  0
LINE
  8
0
 62
     0
 10
0.241157
 20
2.44326
 30
0.0
 11
0.177767
 21
2.67064
 31
0.0
  0
LINE
  8
0
 62
     0
 10
0.177767
 20
2.67064
 30
0.0
 11
0.130914
 21
2.90077
 31
0.0
  0
LINE
  8
0
 62
     0
 10
0.130914
 20
2.90077
 30
0.0
 11
0.104731
 21
3.13504
 31
0.0
  0
LINE
  8
0
 62
     0
 10
0.104731
 20
3.13504
 30
0.0
 11
0.0950846
 21
3.37068
 31
0.0
  0
LINE
  8
0
 62
     0
 10
0.0950846
 20
3.37068
 30
0.0
 11
0.0950846
 21
81.5717
 31
0.0
  0
LINE
  8
0
 62
     0
 10
0.0950846
 20
81.5717
 30
0.0
 11
0.104731
 21
81.8074
 31
0.0
  0
LINE
  8
0
 62
     0
 10
0.104731
 20
81.8074
 30
0.0
 11
0.130914
 21
82.0416
 31
0.0
  0
LINE
  8
0
 62
     0
 10
0.130914
 20
82.0416
 30
0.0
 11
0.177767
 21
82.2717
 31
0.0
  0
LINE
  8
0
 62
     0
 10
0.177767
 20
82.2717
 30
0.0
 11
0.241157
 21
82.4988
 31
0.0
  0
LINE
  8
0
 62
     0
 10
0.241157
 20
82.4988
 30
0.0
 11
0.323839
 21
82.7193
 31
0.0
  0
LINE
  8
0
 62
     0
 10
0.323839
 20
82.7193
 30
0.0
 11
0.421679
 21
82.9331
 31
0.0
  0
LINE
  8
0
 62
     0
 10
0.421679
 20
82.9331
 30
0.0
 11
0.537436
 21
83.1398
 31
0.0
  0
LINE
  8
0
 62
     0
 10
0.537436
 20
83.1398
 30
0.0
 11
0.666972
 21
83.3356
 31
0.0
  0
LINE
  8
0
 62
     0
 10
0.666972
 20
83.3356
 30
0.0
 11
0.813043
 21
83.5201
 31
0.0
  0
LINE
  8
0
 62
     0
 10
0.813043
 20
83.5201
 30
0.0
 11
0.972894
 21
83.6937
 31
0.0
  0
LINE
  8
0
 62
     0
 10
0.972894
 20
83.6937
 30
0.0
 11
1.14653
 21
83.8535
 31
0.0
  0
LINE
  8
0
 62
     0
 10
1.14653
 20
83.8535
 30
0.0
 11
1.33119
 21
83.9996
 31
0.0
  0
LINE
  8
0
 62
     0
 10
1.33119
 20
83.9996
 30
0.0
 11
1.52687
 21
84.1294
 31
0.0
  0
LINE
  8
0
 62
     0
 10
1.52687
 20
84.1294
 30
0.0
 11
1.73357
 21
84.2451
 31
0.0
  0
LINE
  8
0
 62
     0
 10
1.73357
 20
84.2451
 30
0.0
 11
1.94717
 21
84.3428
 31
0.0
  0
LINE
  8
0
 62
     0
 10
1.94717
 20
84.3428
 30
0.0
 11
2.16765
 21
84.4254
 31
0.0
  0
LINE
  8
0
 62
     0
 10
2.16765
 20
84.4254
 30
0.0
 11
2.39503
 21
84.4889
 31
0.0
  0
LINE
  8
0
 62
     0
 10
2.39503
 20
84.4889
 30
0.0
 11
2.62516
 21
84.5358
 31
0.0
  0
LINE
  8
0
 62
     0
 10
2.62516
 20
84.5358
 30
0.0
 11
2.85943
 21
84.5619
 31
0.0
  0
LINE
  8
0
 62
     0
 10
2.85943
 20
84.5619
 30
0.0
 11
3.09507
 21
84.5714
 31
0.0
  0
LINE
  8
0
 62
     0
 10
3.09507
 20
84.5714
 30
0.0
 11
233.696
 21
84.5714
 31
0.0
  0
LINE
  8
0
 62
     0
 10
119.538
 20
19.8961
 30
0.0
 11
119.538
 21
19.2967
 31
0.0
  0
LINE
  8
0
 62
     0
 10
119.538
 20
19.2967
 30
0.0
 11
118.739
 21
19.2967
 31
0.0
  0
LINE
  8
0
 62
     0
 10
118.739
 20
19.2967
 30
0.0
 11
118.739
 21
15.1956
 31
0.0
  0
LINE
  8
0
 62
     0
 10
118.739
 20
15.1956
 30
0.0
 11
77.9127
 21
15.1956
 31
0.0
  0
LINE
  8
0
 62
     0
 10
77.9127
 20
15.1956
 30
0.0
 11
77.9127
 21
18.4258
 31
0.0
  0
LINE
  8
0
 62
     0
 10
77.9127
 20
18.4258
 30
0.0
 11
76.1891
 21
18.4258
 31
0.0
  0
LINE
  8
0
 62
     0
 10
76.1891
 20
18.4258
 30
0.0
 11
76.1891
 21
19.3463
 31
0.0
  0
LINE
  8
0
 62
     0
 10
76.1891
 20
19.3463
 30
0.0
 11
74.888
 21
19.3463
 31
0.0
  0
LINE
  8
0
 62
     0
 10
74.888
 20
19.3463
 30
0.0
 11
74.888
 21
18.4258
 31
0.0
  0
LINE
  8
0
 62
     0
 10
74.888
 20
18.4258
 30
0.0
 11
73.1629
 21
18.4258
 31
0.0
  0
LINE
  8
0
 62
     0
 10
73.1629
 20
18.4258
 30
0.0
 11
73.1629
 21
15.1956
 31
0.0
  0
LINE
  8
0
 62
     0
 10
73.1629
 20
15.1956
 30
0.0
 11
72.3388
 21
15.1956
 31
0.0
  0
LINE
  8
0
 62
     0
 10
72.3388
 20
15.1956
 30
0.0
 11
72.3388
 21
14.3964
 31
0.0
  0
LINE
  8
0
 62
     0
 10
72.3388
 20
14.3964
 30
0.0
 11
73.1629
 21
14.3964
 31
0.0
  0
LINE
  8
0
 62
     0
 10
73.1629
 20
14.3964
 30
0.0
 11
73.1629
 21
8.12631
 31
0.0
  0
LINE
  8
0
 62
     0
 10
73.1629
 20
8.12631
 30
0.0
 11
74.888
 21
8.12631
 31
0.0
  0
LINE
  8
0
 62
     0
 10
74.888
 20
8.12631
 30
0.0
 11
74.888
 21
7.1465
 31
0.0
  0
LINE
  8
0
 62
     0
 10
74.888
 20
7.1465
 30
0.0
 11
76.1891
 21
7.1465
 31
0.0
  0
LINE
  8
0
 62
     0
 10
76.1891
 20
7.1465
 30
0.0
 11
76.1891
 21
8.12631
 31
0.0
  0
LINE
  8
0
 62
     0
 10
76.1891
 20
8.12631
 30
0.0
 11
77.9127
 21
8.12631
 31
0.0
  0
LINE
  8
0
 62
     0
 10
77.9127
 20
8.12631
 30
0.0
 11
77.9127
 21
12.5966
 31
0.0
  0
LINE
  8
0
 62
     0
 10
77.9127
 20
12.5966
 30
0.0
 11
118.739
 21
12.5966
 31
0.0
  0
LINE
  8
0
 62
     0
 10
118.739
 20
12.5966
 30
0.0
 11
118.739
 21
8.49559
 31
0.0
  0
LINE
  8
0
 62
     0
 10
118.739
 20
8.49559
 30
0.0
 11
119.538
 21
8.49559
 31
0.0
  0
LINE
  8
0
 62
     0
 10
119.538
 20
8.49559
 30
0.0
 11
119.538
 21
7.89615
 31
0.0
  0
LINE
  8
0
 62
     0
 10
119.538
 20
7.89615
 30
0.0
 11
131.538
 21
7.89615
 31
0.0
  0
LINE
  8
0
 62
     0
 10
131.538
 20
7.89615
 30
0.0
 11
131.538
 21
8.49559
 31
0.0
  0
LINE
  8
0
 62
     0
 10
131.538
 20
8.49559
 30
0.0
 11
132.339
 21
8.49559
 31
0.0
  0
LINE
  8
0
 62
     0
 10
132.339
 20
8.49559
 30
0.0
 11
132.339
 21
12.5966
 31
0.0
  0
LINE
  8
0
 62
     0
 10
132.339
 20
12.5966
 30
0.0
 11
173.163
 21
12.5966
 31
0.0
  0
LINE
  8
0
 62
     0
 10
173.163
 20
12.5966
 30
0.0
 11
173.163
 21
8.12631
 31
0.0
  0
LINE
  8
0
 62
     0
 10
173.163
 20
8.12631
 30
0.0
 11
174.888
 21
8.12631
 31
0.0
  0
LINE
  8
0
 62
     0
 10
174.888
 20
8.12631
 30
0.0
 11
174.888
 21
7.1465
 31
0.0
  0
LINE
  8
0
 62
     0
 10
174.888
 20
7.1465
 30
0.0
 11
176.189
 21
7.1465
 31
0.0
  0
LINE
  8
0
 62
     0
 10
176.189
 20
7.1465
 30
0.0
 11
176.189
 21
8.12631
 31
0.0
  0
LINE
  8
0
 62
     0
 10
176.189
 20
8.12631
 30
0.0
 11
177.913
 21
8.12631
 31
0.0
  0
LINE
  8
0
 62
     0
 10
177.913
 20
8.12631
 30
0.0
 11
177.913
 21
14.3964
 31
0.0
  0
LINE
  8
0
 62
     0
 10
177.913
 20
14.3964
 30
0.0
 11
178.738
 21
14.3964
 31
0.0
  0
LINE
  8
0
 62
     0
 10
178.738
 20
14.3964
 30
0.0
 11
178.738
 21
15.1956
 31
0.0
  0
LINE
  8
0
 62
     0
 10
178.738
 20
15.1956
 30
0.0
 11
177.913
 21
15.1956
 31
0.0
  0
LINE
  8
0
 62
     0
 10
177.913
 20
15.1956
 30
0.0
 11
177.913
 21
18.4258
 31
0.0
  0
LINE
  8
0
 62
     0
 10
177.913
 20
18.4258
 30
0.0
 11
176.189
 21
18.4258
 31
0.0
  0
LINE
  8
0
 62
     0
 10
176.189
 20
18.4258
 30
0.0
 11
176.189
 21
19.3463
 31
0.0
  0
LINE
  8
0
 62
     0
 10
176.189
 20
19.3463
 30
0.0
 11
174.888
 21
19.3463
 31
0.0
  0
LINE
  8
0
 62
     0
 10
174.888
 20
19.3463
 30
0.0
 11
174.888
 21
18.4258
 31
0.0
  0
LINE
  8
0
 62
     0
 10
174.888
 20
18.4258
 30
0.0
 11
173.163
 21
18.4258
 31
0.0
  0
LINE
  8
0
 62
     0
 10
173.163
 20
18.4258
 30
0.0
 11
173.163
 21
15.1956
 31
0.0
  0
LINE
  8
0
 62
     0
 10
173.163
 20
15.1956
 30
0.0
 11
132.339
 21
15.1956
 31
0.0
  0
LINE
  8
0
 62
     0
 10
132.339
 20
15.1956
 30
0.0
 11
132.339
 21
19.2967
 31
0.0
  0
LINE
  8
0
 62
     0
 10
132.339
 20
19.2967
 30
0.0
 11
131.538
 21
19.2967
 31
0.0
  0
LINE
  8
0
 62
     0
 10
131.538
 20
19.2967
 30
0.0
 11
131.538
 21
19.8961
 31
0.0
  0
LINE
  8
0
 62
     0
 10
131.538
 20
19.8961
 30
0.0
 11
119.538
 21
19.8961
 31
0.0
  0
LINE
  8
0
 62
     0
 10
10.0018
 20
19.8961
 30
0.0
 11
10.0018
 21
19.2967
 31
0.0
  0
LINE
  8
0
 62
     0
 10
10.0018
 20
19.2967
 30
0.0
 11
9.20115
 21
19.2967
 31
0.0
  0
LINE
  8
0
 62
     0
 10
9.20115
 20
19.2967
 30
0.0
 11
9.20115
 21
8.49559
 31
0.0
  0
LINE
  8
0
 62
     0
 10
9.20115
 20
8.49559
 30
0.0
 11
10.0018
 21
8.49559
 31
0.0
  0
LINE
  8
0
 62
     0
 10
10.0018
 20
8.49559
 30
0.0
 11
10.0018
 21
7.89615
 31
0.0
  0
LINE
  8
0
 62
     0
 10
10.0018
 20
7.89615
 30
0.0
 11
22.0018
 21
7.89615
 31
0.0
  0
LINE
  8
0
 62
     0
 10
22.0018
 20
7.89615
 30
0.0
 11
22.0018
 21
8.49559
 31
0.0
  0
LINE
  8
0
 62
     0
 10
22.0018
 20
8.49559
 30
0.0
 11
22.801
 21
8.49559
 31
0.0
  0
LINE
  8
0
 62
     0
 10
22.801
 20
8.49559
 30
0.0
 11
22.801
 21
19.2967
 31
0.0
  0
LINE
  8
0
 62
     0
 10
22.801
 20
19.2967
 30
0.0
 11
22.0018
 21
19.2967
 31
0.0
  0
LINE
  8
0
 62
     0
 10
22.0018
 20
19.2967
 30
0.0
 11
22.0018
 21
19.8961
 31
0.0
  0
LINE
  8
0
 62
     0
 10
22.0018
 20
19.8961
 30
0.0
 11
10.0018
 21
19.8961
 31
0.0
  0
LINE
  8
0
 62
     0
 10
31.4331
 20
19.8961
 30
0.0
 11
31.4331
 21
19.2967
 31
0.0
  0
LINE
  8
0
 62
     0
 10
31.4331
 20
19.2967
 30
0.0
 11
30.6324
 21
19.2967
 31
0.0
  0
LINE
  8
0
 62
     0
 10
30.6324
 20
19.2967
 30
0.0
 11
30.6324
 21
8.49559
 31
0.0
  0
LINE
  8
0
 62
     0
 10
30.6324
 20
8.49559
 30
0.0
 11
31.4331
 21
8.49559
 31
0.0
  0
LINE
  8
0
 62
     0
 10
31.4331
 20
8.49559
 30
0.0
 11
31.4331
 21
7.89615
 31
0.0
  0
LINE
  8
0
 62
     0
 10
31.4331
 20
7.89615
 30
0.0
 11
43.4329
 21
7.89615
 31
0.0
  0
LINE
  8
0
 62
     0
 10
43.4329
 20
7.89615
 30
0.0
 11
43.4329
 21
8.49559
 31
0.0
  0
LINE
  8
0
 62
     0
 10
43.4329
 20
8.49559
 30
0.0
 11
44.2323
 21
8.49559
 31
0.0
  0
LINE
  8
0
 62
     0
 10
44.2323
 20
8.49559
 30
0.0
 11
44.2323
 21
19.2967
 31
0.0
  0
LINE
  8
0
 62
     0
 10
44.2323
 20
19.2967
 30
0.0
 11
43.4329
 21
19.2967
 31
0.0
  0
LINE
  8
0
 62
     0
 10
43.4329
 20
19.2967
 30
0.0
 11
43.4329
 21
19.8961
 31
0.0
  0
LINE
  8
0
 62
     0
 10
43.4329
 20
19.8961
 30
0.0
 11
31.4331
 21
19.8961
 31
0.0
  0
LINE
  8
0
 62
     0
 10
50.4832
 20
19.8961
 30
0.0
 11
50.4832
 21
19.2967
 31
0.0
  0
LINE
  8
0
 62
     0
 10
50.4832
 20
19.2967
 30
0.0
 11
49.6824
 21
19.2967
 31
0.0
  0
LINE
  8
0
 62
     0
 10
49.6824
 20
19.2967
 30
0.0
 11
49.6824
 21
8.49559
 31
0.0
  0
LINE
  8
0
 62
     0
 10
49.6824
 20
8.49559
 30
0.0
 11
50.4832
 21
8.49559
 31
0.0
  0
LINE
  8
0
 62
     0
 10
50.4832
 20
8.49559
 30
0.0
 11
50.4832
 21
7.89615
 31
0.0
  0
LINE
  8
0
 62
     0
 10
50.4832
 20
7.89615
 30
0.0
 11
62.4829
 21
7.89615
 31
0.0
  0
LINE
  8
0
 62
     0
 10
62.4829
 20
7.89615
 30
0.0
 11
62.4829
 21
8.49559
 31
0.0
  0
LINE
  8
0
 62
     0
 10
62.4829
 20
8.49559
 30
0.0
 11
63.2823
 21
8.49559
 31
0.0
  0
LINE
  8
0
 62
     0
 10
63.2823
 20
8.49559
 30
0.0
 11
63.2823
 21
19.2967
 31
0.0
  0
LINE
  8
0
 62
     0
 10
63.2823
 20
19.2967
 30
0.0
 11
62.4829
 21
19.2967
 31
0.0
  0
LINE
  8
0
 62
     0
 10
62.4829
 20
19.2967
 30
0.0
 11
62.4829
 21
19.8961
 31
0.0
  0
LINE
  8
0
 62
     0
 10
62.4829
 20
19.8961
 30
0.0
 11
50.4832
 21
19.8961
 31
0.0
  0
LINE
  8
0
 62
     0
 10
190.977
 20
19.8961
 30
0.0
 11
190.977
 21
19.2967
 31
0.0
  0
LINE
  8
0
 62
     0
 10
190.977
 20
19.2967
 30
0.0
 11
190.176
 21
19.2967
 31
0.0
  0
LINE
  8
0
 62
     0
 10
190.176
 20
19.2967
 30
0.0
 11
190.176
 21
8.49559
 31
0.0
  0
LINE
  8
0
 62
     0
 10
190.176
 20
8.49559
 30
0.0
 11
190.977
 21
8.49559
 31
0.0
  0
LINE
  8
0
 62
     0
 10
190.977
 20
8.49559
 30
0.0
 11
190.977
 21
7.89615
 31
0.0
  0
LINE
  8
0
 62
     0
 10
190.977
 20
7.89615
 30
0.0
 11
202.977
 21
7.89615
 31
0.0
  0
LINE
  8
0
 62
     0
 10
202.977
 20
7.89615
 30
0.0
 11
202.977
 21
8.49559
 31
0.0
  0
LINE
  8
0
 62
     0
 10
202.977
 20
8.49559
 30
0.0
 11
203.776
 21
8.49559
 31
0.0
  0
LINE
  8
0
 62
     0
 10
203.776
 20
8.49559
 30
0.0
 11
203.776
 21
19.2967
 31
0.0
  0
LINE
  8
0
 62
     0
 10
203.776
 20
19.2967
 30
0.0
 11
202.977
 21
19.2967
 31
0.0
  0
LINE
  8
0
 62
     0
 10
202.977
 20
19.2967
 30
0.0
 11
202.977
 21
19.8961
 31
0.0
  0
LINE
  8
0
 62
     0
 10
202.977
 20
19.8961
 30
0.0
 11
190.977
 21
19.8961
 31
0.0
  0
LINE
  8
0
 62
     0
 10
214.788
 20
19.8961
 30
0.0
 11
214.788
 21
19.2967
 31
0.0
  0
LINE
  8
0
 62
     0
 10
214.788
 20
19.2967
 30
0.0
 11
213.989
 21
19.2967
 31
0.0
  0
LINE
  8
0
 62
     0
 10
213.989
 20
19.2967
 30
0.0
 11
213.989
 21
8.49559
 31
0.0
  0
LINE
  8
0
 62
     0
 10
213.989
 20
8.49559
 30
0.0
 11
214.788
 21
8.49559
 31
0.0
  0
LINE
  8
0
 62
     0
 10
214.788
 20
8.49559
 30
0.0
 11
214.788
 21
7.89615
 31
0.0
  0
LINE
  8
0
 62
     0
 10
214.788
 20
7.89615
 30
0.0
 11
226.788
 21
7.89615
 31
0.0
  0
LINE
  8
0
 62
     0
 10
226.788
 20
7.89615
 30
0.0
 11
226.788
 21
8.49559
 31
0.0
  0
LINE
  8
0
 62
     0
 10
226.788
 20
8.49559
 30
0.0
 11
227.589
 21
8.49559
 31
0.0
  0
LINE
  8
0
 62
     0
 10
227.589
 20
8.49559
 30
0.0
 11
227.589
 21
19.2967
 31
0.0
  0
LINE
  8
0
 62
     0
 10
227.589
 20
19.2967
 30
0.0
 11
226.788
 21
19.2967
 31
0.0
  0
LINE
  8
0
 62
     0
 10
226.788
 20
19.2967
 30
0.0
 11
226.788
 21
19.8961
 31
0.0
  0
LINE
  8
0
 62
     0
 10
226.788
 20
19.8961
 30
0.0
 11
214.788
 21
19.8961
 31
0.0
  0
LINE
  8
0
 62
     0
 10
14.7629
 20
38.946
 30
0.0
 11
14.7629
 21
38.3466
 31
0.0
  0
LINE
  8
0
 62
     0
 10
14.7629
 20
38.3466
 30
0.0
 11
13.9637
 21
38.3466
 31
0.0
  0
LINE
  8
0
 62
     0
 10
13.9637
 20
38.3466
 30
0.0
 11
13.9637
 21
27.5456
 31
0.0
  0
LINE
  8
0
 62
     0
 10
13.9637
 20
27.5456
 30
0.0
 11
14.7629
 21
27.5456
 31
0.0
  0
LINE
  8
0
 62
     0
 10
14.7629
 20
27.5456
 30
0.0
 11
14.7629
 21
26.9462
 31
0.0
  0
LINE
  8
0
 62
     0
 10
14.7629
 20
26.9462
 30
0.0
 11
26.7629
 21
26.9462
 31
0.0
  0
LINE
  8
0
 62
     0
 10
26.7629
 20
26.9462
 30
0.0
 11
26.7629
 21
27.5456
 31
0.0
  0
LINE
  8
0
 62
     0
 10
26.7629
 20
27.5456
 30
0.0
 11
27.5635
 21
27.5456
 31
0.0
  0
LINE
  8
0
 62
     0
 10
27.5635
 20
27.5456
 30
0.0
 11
27.5635
 21
38.3466
 31
0.0
  0
LINE
  8
0
 62
     0
 10
27.5635
 20
38.3466
 30
0.0
 11
26.7629
 21
38.3466
 31
0.0
  0
LINE
  8
0
 62
     0
 10
26.7629
 20
38.3466
 30
0.0
 11
26.7629
 21
38.946
 31
0.0
  0
LINE
  8
0
 62
     0
 10
26.7629
 20
38.946
 30
0.0
 11
14.7629
 21
38.946
 31
0.0
  0
LINE
  8
0
 62
     0
 10
40.9582
 20
38.946
 30
0.0
 11
40.9582
 21
38.3466
 31
0.0
  0
LINE
  8
0
 62
     0
 10
40.9582
 20
38.3466
 30
0.0
 11
40.1574
 21
38.3466
 31
0.0
  0
LINE
  8
0
 62
     0
 10
40.1574
 20
38.3466
 30
0.0
 11
40.1574
 21
27.5456
 31
0.0
  0
LINE
  8
0
 62
     0
 10
40.1574
 20
27.5456
 30
0.0
 11
40.9582
 21
27.5456
 31
0.0
  0
LINE
  8
0
 62
     0
 10
40.9582
 20
27.5456
 30
0.0
 11
40.9582
 21
26.9462
 31
0.0
  0
LINE
  8
0
 62
     0
 10
40.9582
 20
26.9462
 30
0.0
 11
52.9579
 21
26.9462
 31
0.0
  0
LINE
  8
0
 62
     0
 10
52.9579
 20
26.9462
 30
0.0
 11
52.9579
 21
27.5456
 31
0.0
  0
LINE
  8
0
 62
     0
 10
52.9579
 20
27.5456
 30
0.0
 11
53.7573
 21
27.5456
 31
0.0
  0
LINE
  8
0
 62
     0
 10
53.7573
 20
27.5456
 30
0.0
 11
53.7573
 21
38.3466
 31
0.0
  0
LINE
  8
0
 62
     0
 10
53.7573
 20
38.3466
 30
0.0
 11
52.9579
 21
38.3466
 31
0.0
  0
LINE
  8
0
 62
     0
 10
52.9579
 20
38.3466
 30
0.0
 11
52.9579
 21
38.946
 31
0.0
  0
LINE
  8
0
 62
     0
 10
52.9579
 20
38.946
 30
0.0
 11
40.9582
 21
38.946
 31
0.0
  0
LINE
  8
0
 62
     0
 10
60.0082
 20
38.946
 30
0.0
 11
60.0082
 21
38.3466
 31
0.0
  0
LINE
  8
0
 62
     0
 10
60.0082
 20
38.3466
 30
0.0
 11
59.206
 21
38.3466
 31
0.0
  0
LINE
  8
0
 62
     0
 10
59.206
 20
38.3466
 30
0.0
 11
59.206
 21
27.5456
 31
0.0
  0
LINE
  8
0
 62
     0
 10
59.206
 20
27.5456
 30
0.0
 11
60.0082
 21
27.5456
 31
0.0
  0
LINE
  8
0
 62
     0
 10
60.0082
 20
27.5456
 30
0.0
 11
60.0082
 21
26.9462
 31
0.0
  0
LINE
  8
0
 62
     0
 10
60.0082
 20
26.9462
 30
0.0
 11
72.0079
 21
26.9462
 31
0.0
  0
LINE
  8
0
 62
     0
 10
72.0079
 20
26.9462
 30
0.0
 11
72.0079
 21
27.5456
 31
0.0
  0
LINE
  8
0
 62
     0
 10
72.0079
 20
27.5456
 30
0.0
 11
72.8073
 21
27.5456
 31
0.0
  0
LINE
  8
0
 62
     0
 10
72.8073
 20
27.5456
 30
0.0
 11
72.8073
 21
38.3466
 31
0.0
  0
LINE
  8
0
 62
     0
 10
72.8073
 20
38.3466
 30
0.0
 11
72.0079
 21
38.3466
 31
0.0
  0
LINE
  8
0
 62
     0
 10
72.0079
 20
38.3466
 30
0.0
 11
72.0079
 21
38.946
 31
0.0
  0
LINE
  8
0
 62
     0
 10
72.0079
 20
38.946
 30
0.0
 11
60.0082
 21
38.946
 31
0.0
  0
LINE
  8
0
 62
     0
 10
79.0582
 20
38.946
 30
0.0
 11
79.0582
 21
38.3466
 31
0.0
  0
LINE
  8
0
 62
     0
 10
79.0582
 20
38.3466
 30
0.0
 11
78.2574
 21
38.3466
 31
0.0
  0
LINE
  8
0
 62
     0
 10
78.2574
 20
38.3466
 30
0.0
 11
78.2574
 21
27.5456
 31
0.0
  0
LINE
  8
0
 62
     0
 10
78.2574
 20
27.5456
 30
0.0
 11
79.0582
 21
27.5456
 31
0.0
  0
LINE
  8
0
 62
     0
 10
79.0582
 20
27.5456
 30
0.0
 11
79.0582
 21
26.9462
 31
0.0
  0
LINE
  8
0
 62
     0
 10
79.0582
 20
26.9462
 30
0.0
 11
91.0579
 21
26.9462
 31
0.0
  0
LINE
  8
0
 62
     0
 10
91.0579
 20
26.9462
 30
0.0
 11
91.0579
 21
27.5456
 31
0.0
  0
LINE
  8
0
 62
     0
 10
91.0579
 20
27.5456
 30
0.0
 11
91.8573
 21
27.5456
 31
0.0
  0
LINE
  8
0
 62
     0
 10
91.8573
 20
27.5456
 30
0.0
 11
91.8573
 21
38.3466
 31
0.0
  0
LINE
  8
0
 62
     0
 10
91.8573
 20
38.3466
 30
0.0
 11
91.0579
 21
38.3466
 31
0.0
  0
LINE
  8
0
 62
     0
 10
91.0579
 20
38.3466
 30
0.0
 11
91.0579
 21
38.946
 31
0.0
  0
LINE
  8
0
 62
     0
 10
91.0579
 20
38.946
 30
0.0
 11
79.0582
 21
38.946
 31
0.0
  0
LINE
  8
0
 62
     0
 10
98.1082
 20
38.946
 30
0.0
 11
98.1082
 21
38.3466
 31
0.0
  0
LINE
  8
0
 62
     0
 10
98.1082
 20
38.3466
 30
0.0
 11
97.3074
 21
38.3466
 31
0.0
  0
LINE
  8
0
 62
     0
 10
97.3074
 20
38.3466
 30
0.0
 11
97.3074
 21
27.5456
 31
0.0
  0
LINE
  8
0
 62
     0
 10
97.3074
 20
27.5456
 30
0.0
 11
98.1082
 21
27.5456
 31
0.0
  0
LINE
  8
0
 62
     0
 10
98.1082
 20
27.5456
 30
0.0
 11
98.1082
 21
26.9462
 31
0.0
  0
LINE
  8
0
 62
     0
 10
98.1082
 20
26.9462
 30
0.0
 11
110.108
 21
26.9462
 31
0.0
  0
LINE
  8
0
 62
     0
 10
110.108
 20
26.9462
 30
0.0
 11
110.108
 21
27.5456
 31
0.0
  0
LINE
  8
0
 62
     0
 10
110.108
 20
27.5456
 30
0.0
 11
110.907
 21
27.5456
 31
0.0
  0
LINE
  8
0
 62
     0
 10
110.907
 20
27.5456
 30
0.0
 11
110.907
 21
38.3466
 31
0.0
  0
LINE
  8
0
 62
     0
 10
110.907
 20
38.3466
 30
0.0
 11
110.108
 21
38.3466
 31
0.0
  0
LINE
  8
0
 62
     0
 10
110.108
 20
38.3466
 30
0.0
 11
110.108
 21
38.946
 31
0.0
  0
LINE
  8
0
 62
     0
 10
110.108
 20
38.946
 30
0.0
 11
98.1082
 21
38.946
 31
0.0
  0
LINE
  8
0
 62
     0
 10
117.158
 20
38.946
 30
0.0
 11
117.158
 21
38.3466
 31
0.0
  0
LINE
  8
0
 62
     0
 10
117.158
 20
38.3466
 30
0.0
 11
116.357
 21
38.3466
 31
0.0
  0
LINE
  8
0
 62
     0
 10
116.357
 20
38.3466
 30
0.0
 11
116.357
 21
27.5456
 31
0.0
  0
LINE
  8
0
 62
     0
 10
116.357
 20
27.5456
 30
0.0
 11
117.158
 21
27.5456
 31
0.0
  0
LINE
  8
0
 62
     0
 10
117.158
 20
27.5456
 30
0.0
 11
117.158
 21
26.9462
 31
0.0
  0
LINE
  8
0
 62
     0
 10
117.158
 20
26.9462
 30
0.0
 11
129.158
 21
26.9462
 31
0.0
  0
LINE
  8
0
 62
     0
 10
129.158
 20
26.9462
 30
0.0
 11
129.158
 21
27.5456
 31
0.0
  0
LINE
  8
0
 62
     0
 10
129.158
 20
27.5456
 30
0.0
 11
129.957
 21
27.5456
 31
0.0
  0
LINE
  8
0
 62
     0
 10
129.957
 20
27.5456
 30
0.0
 11
129.957
 21
38.3466
 31
0.0
  0
LINE
  8
0
 62
     0
 10
129.957
 20
38.3466
 30
0.0
 11
129.158
 21
38.3466
 31
0.0
  0
LINE
  8
0
 62
     0
 10
129.158
 20
38.3466
 30
0.0
 11
129.158
 21
38.946
 31
0.0
  0
LINE
  8
0
 62
     0
 10
129.158
 20
38.946
 30
0.0
 11
117.158
 21
38.946
 31
0.0
  0
LINE
  8
0
 62
     0
 10
136.208
 20
38.946
 30
0.0
 11
136.208
 21
38.3466
 31
0.0
  0
LINE
  8
0
 62
     0
 10
136.208
 20
38.3466
 30
0.0
 11
135.407
 21
38.3466
 31
0.0
  0
LINE
  8
0
 62
     0
 10
135.407
 20
38.3466
 30
0.0
 11
135.407
 21
27.5456
 31
0.0
  0
LINE
  8
0
 62
     0
 10
135.407
 20
27.5456
 30
0.0
 11
136.208
 21
27.5456
 31
0.0
  0
LINE
  8
0
 62
     0
 10
136.208
 20
27.5456
 30
0.0
 11
136.208
 21
26.9462
 31
0.0
  0
LINE
  8
0
 62
     0
 10
136.208
 20
26.9462
 30
0.0
 11
148.208
 21
26.9462
 31
0.0
  0
LINE
  8
0
 62
     0
 10
148.208
 20
26.9462
 30
0.0
 11
148.208
 21
27.5456
 31
0.0
  0
LINE
  8
0
 62
     0
 10
148.208
 20
27.5456
 30
0.0
 11
149.007
 21
27.5456
 31
0.0
  0
LINE
  8
0
 62
     0
 10
149.007
 20
27.5456
 30
0.0
 11
149.007
 21
38.3466
 31
0.0
  0
LINE
  8
0
 62
     0
 10
149.007
 20
38.3466
 30
0.0
 11
148.208
 21
38.3466
 31
0.0
  0
LINE
  8
0
 62
     0
 10
148.208
 20
38.3466
 30
0.0
 11
148.208
 21
38.946
 31
0.0
  0
LINE
  8
0
 62
     0
 10
148.208
 20
38.946
 30
0.0
 11
136.208
 21
38.946
 31
0.0
  0
LINE
  8
0
 62
     0
 10
155.258
 20
38.946
 30
0.0
 11
155.258
 21
38.3466
 31
0.0
  0
LINE
  8
0
 62
     0
 10
155.258
 20
38.3466
 30
0.0
 11
154.457
 21
38.3466
 31
0.0
  0
LINE
  8
0
 62
     0
 10
154.457
 20
38.3466
 30
0.0
 11
154.457
 21
27.5456
 31
0.0
  0
LINE
  8
0
 62
     0
 10
154.457
 20
27.5456
 30
0.0
 11
155.258
 21
27.5456
 31
0.0
  0
LINE
  8
0
 62
     0
 10
155.258
 20
27.5456
 30
0.0
 11
155.258
 21
26.9462
 31
0.0
  0
LINE
  8
0
 62
     0
 10
155.258
 20
26.9462
 30
0.0
 11
167.258
 21
26.9462
 31
0.0
  0
LINE
  8
0
 62
     0
 10
167.258
 20
26.9462
 30
0.0
 11
167.258
 21
27.5456
 31
0.0
  0
LINE
  8
0
 62
     0
 10
167.258
 20
27.5456
 30
0.0
 11
168.057
 21
27.5456
 31
0.0
  0
LINE
  8
0
 62
     0
 10
168.057
 20
27.5456
 30
0.0
 11
168.057
 21
38.3466
 31
0.0
  0
LINE
  8
0
 62
     0
 10
168.057
 20
38.3466
 30
0.0
 11
167.258
 21
38.3466
 31
0.0
  0
LINE
  8
0
 62
     0
 10
167.258
 20
38.3466
 30
0.0
 11
167.258
 21
38.946
 31
0.0
  0
LINE
  8
0
 62
     0
 10
167.258
 20
38.946
 30
0.0
 11
155.258
 21
38.946
 31
0.0
  0
LINE
  8
0
 62
     0
 10
174.308
 20
38.946
 30
0.0
 11
174.308
 21
38.3466
 31
0.0
  0
LINE
  8
0
 62
     0
 10
174.308
 20
38.3466
 30
0.0
 11
173.507
 21
38.3466
 31
0.0
  0
LINE
  8
0
 62
     0
 10
173.507
 20
38.3466
 30
0.0
 11
173.507
 21
27.5456
 31
0.0
  0
LINE
  8
0
 62
     0
 10
173.507
 20
27.5456
 30
0.0
 11
174.308
 21
27.5456
 31
0.0
  0
LINE
  8
0
 62
     0
 10
174.308
 20
27.5456
 30
0.0
 11
174.308
 21
26.9462
 31
0.0
  0
LINE
  8
0
 62
     0
 10
174.308
 20
26.9462
 30
0.0
 11
186.308
 21
26.9462
 31
0.0
  0
LINE
  8
0
 62
     0
 10
186.308
 20
26.9462
 30
0.0
 11
186.308
 21
27.5456
 31
0.0
  0
LINE
  8
0
 62
     0
 10
186.308
 20
27.5456
 30
0.0
 11
187.107
 21
27.5456
 31
0.0
  0
LINE
  8
0
 62
     0
 10
187.107
 20
27.5456
 30
0.0
 11
187.107
 21
38.3466
 31
0.0
  0
LINE
  8
0
 62
     0
 10
187.107
 20
38.3466
 30
0.0
 11
186.308
 21
38.3466
 31
0.0
  0
LINE
  8
0
 62
     0
 10
186.308
 20
38.3466
 30
0.0
 11
186.308
 21
38.946
 31
0.0
  0
LINE
  8
0
 62
     0
 10
186.308
 20
38.946
 30
0.0
 11
174.308
 21
38.946
 31
0.0
  0
LINE
  8
0
 62
     0
 10
195.738
 20
38.946
 30
0.0
 11
195.738
 21
38.3466
 31
0.0
  0
LINE
  8
0
 62
     0
 10
195.738
 20
38.3466
 30
0.0
 11
194.939
 21
38.3466
 31
0.0
  0
LINE
  8
0
 62
     0
 10
194.939
 20
38.3466
 30
0.0
 11
194.939
 21
27.5456
 31
0.0
  0
LINE
  8
0
 62
     0
 10
194.939
 20
27.5456
 30
0.0
 11
195.738
 21
27.5456
 31
0.0
  0
LINE
  8
0
 62
     0
 10
195.738
 20
27.5456
 30
0.0
 11
195.738
 21
26.9462
 31
0.0
  0
LINE
  8
0
 62
     0
 10
195.738
 20
26.9462
 30
0.0
 11
207.738
 21
26.9462
 31
0.0
  0
LINE
  8
0
 62
     0
 10
207.738
 20
26.9462
 30
0.0
 11
207.738
 21
27.5456
 31
0.0
  0
LINE
  8
0
 62
     0
 10
207.738
 20
27.5456
 30
0.0
 11
208.539
 21
27.5456
 31
0.0
  0
LINE
  8
0
 62
     0
 10
208.539
 20
27.5456
 30
0.0
 11
208.539
 21
38.3466
 31
0.0
  0
LINE
  8
0
 62
     0
 10
208.539
 20
38.3466
 30
0.0
 11
207.738
 21
38.3466
 31
0.0
  0
LINE
  8
0
 62
     0
 10
207.738
 20
38.3466
 30
0.0
 11
207.738
 21
38.946
 31
0.0
  0
LINE
  8
0
 62
     0
 10
207.738
 20
38.946
 30
0.0
 11
195.738
 21
38.946
 31
0.0
  0
LINE
  8
0
 62
     0
 10
217.171
 20
38.946
 30
0.0
 11
217.171
 21
38.3466
 31
0.0
  0
LINE
  8
0
 62
     0
 10
217.171
 20
38.3466
 30
0.0
 11
216.37
 21
38.3466
 31
0.0
  0
LINE
  8
0
 62
     0
 10
216.37
 20
38.3466
 30
0.0
 11
216.37
 21
27.5456
 31
0.0
  0
LINE
  8
0
 62
     0
 10
216.37
 20
27.5456
 30
0.0
 11
217.171
 21
27.5456
 31
0.0
  0
LINE
  8
0
 62
     0
 10
217.171
 20
27.5456
 30
0.0
 11
217.171
 21
26.9462
 31
0.0
  0
LINE
  8
0
 62
     0
 10
217.171
 20
26.9462
 30
0.0
 11
229.17
 21
26.9462
 31
0.0
  0
LINE
  8
0
 62
     0
 10
229.17
 20
26.9462
 30
0.0
 11
229.17
 21
27.5456
 31
0.0
  0
LINE
  8
0
 62
     0
 10
229.17
 20
27.5456
 30
0.0
 11
229.971
 21
27.5456
 31
0.0
  0
LINE
  8
0
 62
     0
 10
229.971
 20
27.5456
 30
0.0
 11
229.971
 21
38.3466
 31
0.0
  0
LINE
  8
0
 62
     0
 10
229.971
 20
38.3466
 30
0.0
 11
229.17
 21
38.3466
 31
0.0
  0
LINE
  8
0
 62
     0
 10
229.17
 20
38.3466
 30
0.0
 11
229.17
 21
38.946
 31
0.0
  0
LINE
  8
0
 62
     0
 10
229.17
 20
38.946
 30
0.0
 11
217.171
 21
38.946
 31
0.0
  0
LINE
  8
0
 62
     0
 10
10.0018
 20
57.996
 30
0.0
 11
10.0018
 21
57.3966
 31
0.0
  0
LINE
  8
0
 62
     0
 10
10.0018
 20
57.3966
 30
0.0
 11
9.20115
 21
57.3966
 31
0.0
  0
LINE
  8
0
 62
     0
 10
9.20115
 20
57.3966
 30
0.0
 11
9.20115
 21
46.5956
 31
0.0
  0
LINE
  8
0
 62
     0
 10
9.20115
 20
46.5956
 30
0.0
 11
10.0018
 21
46.5956
 31
0.0
  0
LINE
  8
0
 62
     0
 10
10.0018
 20
46.5956
 30
0.0
 11
10.0018
 21
45.9962
 31
0.0
  0
LINE
  8
0
 62
     0
 10
10.0018
 20
45.9962
 30
0.0
 11
22.0018
 21
45.9962
 31
0.0
  0
LINE
  8
0
 62
     0
 10
22.0018
 20
45.9962
 30
0.0
 11
22.0018
 21
46.5956
 31
0.0
  0
LINE
  8
0
 62
     0
 10
22.0018
 20
46.5956
 30
0.0
 11
22.801
 21
46.5956
 31
0.0
  0
LINE
  8
0
 62
     0
 10
22.801
 20
46.5956
 30
0.0
 11
22.801
 21
57.3966
 31
0.0
  0
LINE
  8
0
 62
     0
 10
22.801
 20
57.3966
 30
0.0
 11
22.0018
 21
57.3966
 31
0.0
  0
LINE
  8
0
 62
     0
 10
22.0018
 20
57.3966
 30
0.0
 11
22.0018
 21
57.996
 31
0.0
  0
LINE
  8
0
 62
     0
 10
22.0018
 20
57.996
 30
0.0
 11
10.0018
 21
57.996
 31
0.0
  0
LINE
  8
0
 62
     0
 10
31.4331
 20
57.996
 30
0.0
 11
31.4331
 21
57.3966
 31
0.0
  0
LINE
  8
0
 62
     0
 10
31.4331
 20
57.3966
 30
0.0
 11
30.6324
 21
57.3966
 31
0.0
  0
LINE
  8
0
 62
     0
 10
30.6324
 20
57.3966
 30
0.0
 11
30.6324
 21
46.5956
 31
0.0
  0
LINE
  8
0
 62
     0
 10
30.6324
 20
46.5956
 30
0.0
 11
31.4331
 21
46.5956
 31
0.0
  0
LINE
  8
0
 62
     0
 10
31.4331
 20
46.5956
 30
0.0
 11
31.4331
 21
45.9962
 31
0.0
  0
LINE
  8
0
 62
     0
 10
31.4331
 20
45.9962
 30
0.0
 11
43.4329
 21
45.9962
 31
0.0
  0
LINE
  8
0
 62
     0
 10
43.4329
 20
45.9962
 30
0.0
 11
43.4329
 21
46.5956
 31
0.0
  0
LINE
  8
0
 62
     0
 10
43.4329
 20
46.5956
 30
0.0
 11
44.2323
 21
46.5956
 31
0.0
  0
LINE
  8
0
 62
     0
 10
44.2323
 20
46.5956
 30
0.0
 11
44.2323
 21
57.3966
 31
0.0
  0
LINE
  8
0
 62
     0
 10
44.2323
 20
57.3966
 30
0.0
 11
43.4329
 21
57.3966
 31
0.0
  0
LINE
  8
0
 62
     0
 10
43.4329
 20
57.3966
 30
0.0
 11
43.4329
 21
57.996
 31
0.0
  0
LINE
  8
0
 62
     0
 10
43.4329
 20
57.996
 30
0.0
 11
31.4331
 21
57.996
 31
0.0
  0
LINE
  8
0
 62
     0
 10
50.4832
 20
57.996
 30
0.0
 11
50.4832
 21
57.3966
 31
0.0
  0
LINE
  8
0
 62
     0
 10
50.4832
 20
57.3966
 30
0.0
 11
49.6824
 21
57.3966
 31
0.0
  0
LINE
  8
0
 62
     0
 10
49.6824
 20
57.3966
 30
0.0
 11
49.6824
 21
46.5956
 31
0.0
  0
LINE
  8
0
 62
     0
 10
49.6824
 20
46.5956
 30
0.0
 11
50.4832
 21
46.5956
 31
0.0
  0
LINE
  8
0
 62
     0
 10
50.4832
 20
46.5956
 30
0.0
 11
50.4832
 21
45.9962
 31
0.0
  0
LINE
  8
0
 62
     0
 10
50.4832
 20
45.9962
 30
0.0
 11
62.4829
 21
45.9962
 31
0.0
  0
LINE
  8
0
 62
     0
 10
62.4829
 20
45.9962
 30
0.0
 11
62.4829
 21
46.5956
 31
0.0
  0
LINE
  8
0
 62
     0
 10
62.4829
 20
46.5956
 30
0.0
 11
63.2823
 21
46.5956
 31
0.0
  0
LINE
  8
0
 62
     0
 10
63.2823
 20
46.5956
 30
0.0
 11
63.2823
 21
57.3966
 31
0.0
  0
LINE
  8
0
 62
     0
 10
63.2823
 20
57.3966
 30
0.0
 11
62.4829
 21
57.3966
 31
0.0
  0
LINE
  8
0
 62
     0
 10
62.4829
 20
57.3966
 30
0.0
 11
62.4829
 21
57.996
 31
0.0
  0
LINE
  8
0
 62
     0
 10
62.4829
 20
57.996
 30
0.0
 11
50.4832
 21
57.996
 31
0.0
  0
LINE
  8
0
 62
     0
 10
69.5332
 20
57.996
 30
0.0
 11
69.5332
 21
57.3966
 31
0.0
  0
LINE
  8
0
 62
     0
 10
69.5332
 20
57.3966
 30
0.0
 11
68.7324
 21
57.3966
 31
0.0
  0
LINE
  8
0
 62
     0
 10
68.7324
 20
57.3966
 30
0.0
 11
68.7324
 21
46.5956
 31
0.0
  0
LINE
  8
0
 62
     0
 10
68.7324
 20
46.5956
 30
0.0
 11
69.5332
 21
46.5956
 31
0.0
  0
LINE
  8
0
 62
     0
 10
69.5332
 20
46.5956
 30
0.0
 11
69.5332
 21
45.9962
 31
0.0
  0
LINE
  8
0
 62
     0
 10
69.5332
 20
45.9962
 30
0.0
 11
81.5329
 21
45.9962
 31
0.0
  0
LINE
  8
0
 62
     0
 10
81.5329
 20
45.9962
 30
0.0
 11
81.5329
 21
46.5956
 31
0.0
  0
LINE
  8
0
 62
     0
 10
81.5329
 20
46.5956
 30
0.0
 11
82.3323
 21
46.5956
 31
0.0
  0
LINE
  8
0
 62
     0
 10
82.3323
 20
46.5956
 30
0.0
 11
82.3323
 21
57.3966
 31
0.0
  0
LINE
  8
0
 62
     0
 10
82.3323
 20
57.3966
 30
0.0
 11
81.5329
 21
57.3966
 31
0.0
  0
LINE
  8
0
 62
     0
 10
81.5329
 20
57.3966
 30
0.0
 11
81.5329
 21
57.996
 31
0.0
  0
LINE
  8
0
 62
     0
 10
81.5329
 20
57.996
 30
0.0
 11
69.5332
 21
57.996
 31
0.0
  0
LINE
  8
0
 62
     0
 10
88.5832
 20
57.996
 30
0.0
 11
88.5832
 21
57.3966
 31
0.0
  0
LINE
  8
0
 62
     0
 10
88.5832
 20
57.3966
 30
0.0
 11
87.7824
 21
57.3966
 31
0.0
  0
LINE
  8
0
 62
     0
 10
87.7824
 20
57.3966
 30
0.0
 11
87.7824
 21
46.5956
 31
0.0
  0
LINE
  8
0
 62
     0
 10
87.7824
 20
46.5956
 30
0.0
 11
88.5832
 21
46.5956
 31
0.0
  0
LINE
  8
0
 62
     0
 10
88.5832
 20
46.5956
 30
0.0
 11
88.5832
 21
45.9962
 31
0.0
  0
LINE
  8
0
 62
     0
 10
88.5832
 20
45.9962
 30
0.0
 11
100.583
 21
45.9962
 31
0.0
  0
LINE
  8
0
 62
     0
 10
100.583
 20
45.9962
 30
0.0
 11
100.583
 21
46.5956
 31
0.0
  0
LINE
  8
0
 62
     0
 10
100.583
 20
46.5956
 30
0.0
 11
101.382
 21
46.5956
 31
0.0
  0
LINE
  8
0
 62
     0
 10
101.382
 20
46.5956
 30
0.0
 11
101.382
 21
57.3966
 31
0.0
  0
LINE
  8
0
 62
     0
 10
101.382
 20
57.3966
 30
0.0
 11
100.583
 21
57.3966
 31
0.0
  0
LINE
  8
0
 62
     0
 10
100.583
 20
57.3966
 30
0.0
 11
100.583
 21
57.996
 31
0.0
  0
LINE
  8
0
 62
     0
 10
100.583
 20
57.996
 30
0.0
 11
88.5832
 21
57.996
 31
0.0
  0
LINE
  8
0
 62
     0
 10
107.633
 20
57.996
 30
0.0
 11
107.633
 21
57.3966
 31
0.0
  0
LINE
  8
0
 62
     0
 10
107.633
 20
57.3966
 30
0.0
 11
106.832
 21
57.3966
 31
0.0
  0
LINE
  8
0
 62
     0
 10
106.832
 20
57.3966
 30
0.0
 11
106.832
 21
46.5956
 31
0.0
  0
LINE
  8
0
 62
     0
 10
106.832
 20
46.5956
 30
0.0
 11
107.633
 21
46.5956
 31
0.0
  0
LINE
  8
0
 62
     0
 10
107.633
 20
46.5956
 30
0.0
 11
107.633
 21
45.9962
 31
0.0
  0
LINE
  8
0
 62
     0
 10
107.633
 20
45.9962
 30
0.0
 11
119.633
 21
45.9962
 31
0.0
  0
LINE
  8
0
 62
     0
 10
119.633
 20
45.9962
 30
0.0
 11
119.633
 21
46.5956
 31
0.0
  0
LINE
  8
0
 62
     0
 10
119.633
 20
46.5956
 30
0.0
 11
120.432
 21
46.5956
 31
0.0
  0
LINE
  8
0
 62
     0
 10
120.432
 20
46.5956
 30
0.0
 11
120.432
 21
57.3966
 31
0.0
  0
LINE
  8
0
 62
     0
 10
120.432
 20
57.3966
 30
0.0
 11
119.633
 21
57.3966
 31
0.0
  0
LINE
  8
0
 62
     0
 10
119.633
 20
57.3966
 30
0.0
 11
119.633
 21
57.996
 31
0.0
  0
LINE
  8
0
 62
     0
 10
119.633
 20
57.996
 30
0.0
 11
107.633
 21
57.996
 31
0.0
  0
LINE
  8
0
 62
     0
 10
126.683
 20
57.996
 30
0.0
 11
126.683
 21
57.3966
 31
0.0
  0
LINE
  8
0
 62
     0
 10
126.683
 20
57.3966
 30
0.0
 11
125.882
 21
57.3966
 31
0.0
  0
LINE
  8
0
 62
     0
 10
125.882
 20
57.3966
 30
0.0
 11
125.882
 21
46.5956
 31
0.0
  0
LINE
  8
0
 62
     0
 10
125.882
 20
46.5956
 30
0.0
 11
126.683
 21
46.5956
 31
0.0
  0
LINE
  8
0
 62
     0
 10
126.683
 20
46.5956
 30
0.0
 11
126.683
 21
45.9962
 31
0.0
  0
LINE
  8
0
 62
     0
 10
126.683
 20
45.9962
 30
0.0
 11
138.683
 21
45.9962
 31
0.0
  0
LINE
  8
0
 62
     0
 10
138.683
 20
45.9962
 30
0.0
 11
138.683
 21
46.5956
 31
0.0
  0
LINE
  8
0
 62
     0
 10
138.683
 20
46.5956
 30
0.0
 11
139.482
 21
46.5956
 31
0.0
  0
LINE
  8
0
 62
     0
 10
139.482
 20
46.5956
 30
0.0
 11
139.482
 21
57.3966
 31
0.0
  0
LINE
  8
0
 62
     0
 10
139.482
 20
57.3966
 30
0.0
 11
138.683
 21
57.3966
 31
0.0
  0
LINE
  8
0
 62
     0
 10
138.683
 20
57.3966
 30
0.0
 11
138.683
 21
57.996
 31
0.0
  0
LINE
  8
0
 62
     0
 10
138.683
 20
57.996
 30
0.0
 11
126.683
 21
57.996
 31
0.0
  0
LINE
  8
0
 62
     0
 10
145.733
 20
57.996
 30
0.0
 11
145.733
 21
57.3966
 31
0.0
  0
LINE
  8
0
 62
     0
 10
145.733
 20
57.3966
 30
0.0
 11
144.932
 21
57.3966
 31
0.0
  0
LINE
  8
0
 62
     0
 10
144.932
 20
57.3966
 30
0.0
 11
144.932
 21
46.5956
 31
0.0
  0
LINE
  8
0
 62
     0
 10
144.932
 20
46.5956
 30
0.0
 11
145.733
 21
46.5956
 31
0.0
  0
LINE
  8
0
 62
     0
 10
145.733
 20
46.5956
 30
0.0
 11
145.733
 21
45.9962
 31
0.0
  0
LINE
  8
0
 62
     0
 10
145.733
 20
45.9962
 30
0.0
 11
157.733
 21
45.9962
 31
0.0
  0
LINE
  8
0
 62
     0
 10
157.733
 20
45.9962
 30
0.0
 11
157.733
 21
46.5956
 31
0.0
  0
LINE
  8
0
 62
     0
 10
157.733
 20
46.5956
 30
0.0
 11
158.532
 21
46.5956
 31
0.0
  0
LINE
  8
0
 62
     0
 10
158.532
 20
46.5956
 30
0.0
 11
158.532
 21
57.3966
 31
0.0
  0
LINE
  8
0
 62
     0
 10
158.532
 20
57.3966
 30
0.0
 11
157.733
 21
57.3966
 31
0.0
  0
LINE
  8
0
 62
     0
 10
157.733
 20
57.3966
 30
0.0
 11
157.733
 21
57.996
 31
0.0
  0
LINE
  8
0
 62
     0
 10
157.733
 20
57.996
 30
0.0
 11
145.733
 21
57.996
 31
0.0
  0
LINE
  8
0
 62
     0
 10
164.783
 20
57.996
 30
0.0
 11
164.783
 21
57.3966
 31
0.0
  0
LINE
  8
0
 62
     0
 10
164.783
 20
57.3966
 30
0.0
 11
163.982
 21
57.3966
 31
0.0
  0
LINE
  8
0
 62
     0
 10
163.982
 20
57.3966
 30
0.0
 11
163.982
 21
46.5956
 31
0.0
  0
LINE
  8
0
 62
     0
 10
163.982
 20
46.5956
 30
0.0
 11
164.783
 21
46.5956
 31
0.0
  0
LINE
  8
0
 62
     0
 10
164.783
 20
46.5956
 30
0.0
 11
164.783
 21
45.9962
 31
0.0
  0
LINE
  8
0
 62
     0
 10
164.783
 20
45.9962
 30
0.0
 11
176.783
 21
45.9962
 31
0.0
  0
LINE
  8
0
 62
     0
 10
176.783
 20
45.9962
 30
0.0
 11
176.783
 21
46.5956
 31
0.0
  0
LINE
  8
0
 62
     0
 10
176.783
 20
46.5956
 30
0.0
 11
177.582
 21
46.5956
 31
0.0
  0
LINE
  8
0
 62
     0
 10
177.582
 20
46.5956
 30
0.0
 11
177.582
 21
57.3966
 31
0.0
  0
LINE
  8
0
 62
     0
 10
177.582
 20
57.3966
 30
0.0
 11
176.783
 21
57.3966
 31
0.0
  0
LINE
  8
0
 62
     0
 10
176.783
 20
57.3966
 30
0.0
 11
176.783
 21
57.996
 31
0.0
  0
LINE
  8
0
 62
     0
 10
176.783
 20
57.996
 30
0.0
 11
164.783
 21
57.996
 31
0.0
  0
LINE
  8
0
 62
     0
 10
183.833
 20
57.996
 30
0.0
 11
183.833
 21
57.3966
 31
0.0
  0
LINE
  8
0
 62
     0
 10
183.833
 20
57.3966
 30
0.0
 11
183.032
 21
57.3966
 31
0.0
  0
LINE
  8
0
 62
     0
 10
183.032
 20
57.3966
 30
0.0
 11
183.032
 21
46.5956
 31
0.0
  0
LINE
  8
0
 62
     0
 10
183.032
 20
46.5956
 30
0.0
 11
183.833
 21
46.5956
 31
0.0
  0
LINE
  8
0
 62
     0
 10
183.833
 20
46.5956
 30
0.0
 11
183.833
 21
45.9962
 31
0.0
  0
LINE
  8
0
 62
     0
 10
183.833
 20
45.9962
 30
0.0
 11
195.833
 21
45.9962
 31
0.0
  0
LINE
  8
0
 62
     0
 10
195.833
 20
45.9962
 30
0.0
 11
195.833
 21
46.5956
 31
0.0
  0
LINE
  8
0
 62
     0
 10
195.833
 20
46.5956
 30
0.0
 11
196.632
 21
46.5956
 31
0.0
  0
LINE
  8
0
 62
     0
 10
196.632
 20
46.5956
 30
0.0
 11
196.632
 21
57.3966
 31
0.0
  0
LINE
  8
0
 62
     0
 10
196.632
 20
57.3966
 30
0.0
 11
195.833
 21
57.3966
 31
0.0
  0
LINE
  8
0
 62
     0
 10
195.833
 20
57.3966
 30
0.0
 11
195.833
 21
57.996
 31
0.0
  0
LINE
  8
0
 62
     0
 10
195.833
 20
57.996
 30
0.0
 11
183.833
 21
57.996
 31
0.0
  0
LINE
  8
0
 62
     0
 10
210.027
 20
57.996
 30
0.0
 11
210.027
 21
57.3966
 31
0.0
  0
LINE
  8
0
 62
     0
 10
210.027
 20
57.3966
 30
0.0
 11
209.226
 21
57.3966
 31
0.0
  0
LINE
  8
0
 62
     0
 10
209.226
 20
57.3966
 30
0.0
 11
209.226
 21
46.5956
 31
0.0
  0
LINE
  8
0
 62
     0
 10
209.226
 20
46.5956
 30
0.0
 11
210.027
 21
46.5956
 31
0.0
  0
LINE
  8
0
 62
     0
 10
210.027
 20
46.5956
 30
0.0
 11
210.027
 21
45.9962
 31
0.0
  0
LINE
  8
0
 62
     0
 10
210.027
 20
45.9962
 30
0.0
 11
222.027
 21
45.9962
 31
0.0
  0
LINE
  8
0
 62
     0
 10
222.027
 20
45.9962
 30
0.0
 11
222.027
 21
46.5956
 31
0.0
  0
LINE
  8
0
 62
     0
 10
222.027
 20
46.5956
 30
0.0
 11
222.826
 21
46.5956
 31
0.0
  0
LINE
  8
0
 62
     0
 10
222.826
 20
46.5956
 30
0.0
 11
222.826
 21
57.3966
 31
0.0
  0
LINE
  8
0
 62
     0
 10
222.826
 20
57.3966
 30
0.0
 11
222.027
 21
57.3966
 31
0.0
  0
LINE
  8
0
 62
     0
 10
222.027
 20
57.3966
 30
0.0
 11
222.027
 21
57.996
 31
0.0
  0
LINE
  8
0
 62
     0
 10
222.027
 20
57.996
 30
0.0
 11
210.027
 21
57.996
 31
0.0
  0
LINE
  8
0
 62
     0
 10
7.61919
 20
77.0474
 30
0.0
 11
7.61919
 21
76.4466
 31
0.0
  0
LINE
  8
0
 62
     0
 10
7.61919
 20
76.4466
 30
0.0
 11
6.8199
 21
76.4466
 31
0.0
  0
LINE
  8
0
 62
     0
 10
6.8199
 20
76.4466
 30
0.0
 11
6.8199
 21
65.647
 31
0.0
  0
LINE
  8
0
 62
     0
 10
6.8199
 20
65.647
 30
0.0
 11
7.61919
 21
65.647
 31
0.0
  0
LINE
  8
0
 62
     0
 10
7.61919
 20
65.647
 30
0.0
 11
7.61919
 21
65.0462
 31
0.0
  0
LINE
  8
0
 62
     0
 10
7.61919
 20
65.0462
 30
0.0
 11
19.6205
 21
65.0462
 31
0.0
  0
LINE
  8
0
 62
     0
 10
19.6205
 20
65.0462
 30
0.0
 11
19.6205
 21
65.647
 31
0.0
  0
LINE
  8
0
 62
     0
 10
19.6205
 20
65.647
 30
0.0
 11
20.4211
 21
65.647
 31
0.0
  0
LINE
  8
0
 62
     0
 10
20.4211
 20
65.647
 30
0.0
 11
20.4211
 21
76.4466
 31
0.0
  0
LINE
  8
0
 62
     0
 10
20.4211
 20
76.4466
 30
0.0
 11
19.6205
 21
76.4466
 31
0.0
  0
LINE
  8
0
 62
     0
 10
19.6205
 20
76.4466
 30
0.0
 11
19.6205
 21
77.0474
 31
0.0
  0
LINE
  8
0
 62
     0
 10
19.6205
 20
77.0474
 30
0.0
 11
7.61919
 21
77.0474
 31
0.0
  0
LINE
  8
0
 62
     0
 10
26.6706
 20
77.0474
 30
0.0
 11
26.6706
 21
76.4466
 31
0.0
  0
LINE
  8
0
 62
     0
 10
26.6706
 20
76.4466
 30
0.0
 11
25.8699
 21
76.4466
 31
0.0
  0
LINE
  8
0
 62
     0
 10
25.8699
 20
76.4466
 30
0.0
 11
25.8699
 21
65.647
 31
0.0
  0
LINE
  8
0
 62
     0
 10
25.8699
 20
65.647
 30
0.0
 11
26.6706
 21
65.647
 31
0.0
  0
LINE
  8
0
 62
     0
 10
26.6706
 20
65.647
 30
0.0
 11
26.6706
 21
65.0462
 31
0.0
  0
LINE
  8
0
 62
     0
 10
26.6706
 20
65.0462
 30
0.0
 11
38.6704
 21
65.0462
 31
0.0
  0
LINE
  8
0
 62
     0
 10
38.6704
 20
65.0462
 30
0.0
 11
38.6704
 21
65.647
 31
0.0
  0
LINE
  8
0
 62
     0
 10
38.6704
 20
65.647
 30
0.0
 11
39.4712
 21
65.647
 31
0.0
  0
LINE
  8
0
 62
     0
 10
39.4712
 20
65.647
 30
0.0
 11
39.4712
 21
76.4466
 31
0.0
  0
LINE
  8
0
 62
     0
 10
39.4712
 20
76.4466
 30
0.0
 11
38.6704
 21
76.4466
 31
0.0
  0
LINE
  8
0
 62
     0
 10
38.6704
 20
76.4466
 30
0.0
 11
38.6704
 21
77.0474
 31
0.0
  0
LINE
  8
0
 62
     0
 10
38.6704
 20
77.0474
 30
0.0
 11
26.6706
 21
77.0474
 31
0.0
  0
LINE
  8
0
 62
     0
 10
45.7207
 20
77.0474
 30
0.0
 11
45.7207
 21
76.4466
 31
0.0
  0
LINE
  8
0
 62
     0
 10
45.7207
 20
76.4466
 30
0.0
 11
44.9199
 21
76.4466
 31
0.0
  0
LINE
  8
0
 62
     0
 10
44.9199
 20
76.4466
 30
0.0
 11
44.9199
 21
65.647
 31
0.0
  0
LINE
  8
0
 62
     0
 10
44.9199
 20
65.647
 30
0.0
 11
45.7207
 21
65.647
 31
0.0
  0
LINE
  8
0
 62
     0
 10
45.7207
 20
65.647
 30
0.0
 11
45.7207
 21
65.0462
 31
0.0
  0
LINE
  8
0
 62
     0
 10
45.7207
 20
65.0462
 30
0.0
 11
57.7204
 21
65.0462
 31
0.0
  0
LINE
  8
0
 62
     0
 10
57.7204
 20
65.0462
 30
0.0
 11
57.7204
 21
65.647
 31
0.0
  0
LINE
  8
0
 62
     0
 10
57.7204
 20
65.647
 30
0.0
 11
58.5212
 21
65.647
 31
0.0
  0
LINE
  8
0
 62
     0
 10
58.5212
 20
65.647
 30
0.0
 11
58.5212
 21
76.4466
 31
0.0
  0
LINE
  8
0
 62
     0
 10
58.5212
 20
76.4466
 30
0.0
 11
57.7204
 21
76.4466
 31
0.0
  0
LINE
  8
0
 62
     0
 10
57.7204
 20
76.4466
 30
0.0
 11
57.7204
 21
77.0474
 31
0.0
  0
LINE
  8
0
 62
     0
 10
57.7204
 20
77.0474
 30
0.0
 11
45.7207
 21
77.0474
 31
0.0
  0
LINE
  8
0
 62
     0
 10
64.7707
 20
77.0474
 30
0.0
 11
64.7707
 21
76.4466
 31
0.0
  0
LINE
  8
0
 62
     0
 10
64.7707
 20
76.4466
 30
0.0
 11
63.9699
 21
76.4466
 31
0.0
  0
LINE
  8
0
 62
     0
 10
63.9699
 20
76.4466
 30
0.0
 11
63.9699
 21
65.647
 31
0.0
  0
LINE
  8
0
 62
     0
 10
63.9699
 20
65.647
 30
0.0
 11
64.7707
 21
65.647
 31
0.0
  0
LINE
  8
0
 62
     0
 10
64.7707
 20
65.647
 30
0.0
 11
64.7707
 21
65.0462
 31
0.0
  0
LINE
  8
0
 62
     0
 10
64.7707
 20
65.0462
 30
0.0
 11
76.7704
 21
65.0462
 31
0.0
  0
LINE
  8
0
 62
     0
 10
76.7704
 20
65.0462
 30
0.0
 11
76.7704
 21
65.647
 31
0.0
  0
LINE
  8
0
 62
     0
 10
76.7704
 20
65.647
 30
0.0
 11
77.5712
 21
65.647
 31
0.0
  0
LINE
  8
0
 62
     0
 10
77.5712
 20
65.647
 30
0.0
 11
77.5712
 21
76.4466
 31
0.0
  0
LINE
  8
0
 62
     0
 10
77.5712
 20
76.4466
 30
0.0
 11
76.7704
 21
76.4466
 31
0.0
  0
LINE
  8
0
 62
     0
 10
76.7704
 20
76.4466
 30
0.0
 11
76.7704
 21
77.0474
 31
0.0
  0
LINE
  8
0
 62
     0
 10
76.7704
 20
77.0474
 30
0.0
 11
64.7707
 21
77.0474
 31
0.0
  0
LINE
  8
0
 62
     0
 10
83.8207
 20
77.0474
 30
0.0
 11
83.8207
 21
76.4466
 31
0.0
  0
LINE
  8
0
 62
     0
 10
83.8207
 20
76.4466
 30
0.0
 11
83.0199
 21
76.4466
 31
0.0
  0
LINE
  8
0
 62
     0
 10
83.0199
 20
76.4466
 30
0.0
 11
83.0199
 21
65.647
 31
0.0
  0
LINE
  8
0
 62
     0
 10
83.0199
 20
65.647
 30
0.0
 11
83.8207
 21
65.647
 31
0.0
  0
LINE
  8
0
 62
     0
 10
83.8207
 20
65.647
 30
0.0
 11
83.8207
 21
65.0462
 31
0.0
  0
LINE
  8
0
 62
     0
 10
83.8207
 20
65.0462
 30
0.0
 11
95.8204
 21
65.0462
 31
0.0
  0
LINE
  8
0
 62
     0
 10
95.8204
 20
65.0462
 30
0.0
 11
95.8204
 21
65.647
 31
0.0
  0
LINE
  8
0
 62
     0
 10
95.8204
 20
65.647
 30
0.0
 11
96.6198
 21
65.647
 31
0.0
  0
LINE
  8
0
 62
     0
 10
96.6198
 20
65.647
 30
0.0
 11
96.6198
 21
76.4466
 31
0.0
  0
LINE
  8
0
 62
     0
 10
96.6198
 20
76.4466
 30
0.0
 11
95.8204
 21
76.4466
 31
0.0
  0
LINE
  8
0
 62
     0
 10
95.8204
 20
76.4466
 30
0.0
 11
95.8204
 21
77.0474
 31
0.0
  0
LINE
  8
0
 62
     0
 10
95.8204
 20
77.0474
 30
0.0
 11
83.8207
 21
77.0474
 31
0.0
  0
LINE
  8
0
 62
     0
 10
102.869
 20
77.0474
 30
0.0
 11
102.869
 21
76.4466
 31
0.0
  0
LINE
  8
0
 62
     0
 10
102.869
 20
76.4466
 30
0.0
 11
102.07
 21
76.4466
 31
0.0
  0
LINE
  8
0
 62
     0
 10
102.07
 20
76.4466
 30
0.0
 11
102.07
 21
65.647
 31
0.0
  0
LINE
  8
0
 62
     0
 10
102.07
 20
65.647
 30
0.0
 11
102.869
 21
65.647
 31
0.0
  0
LINE
  8
0
 62
     0
 10
102.869
 20
65.647
 30
0.0
 11
102.869
 21
65.0462
 31
0.0
  0
LINE
  8
0
 62
     0
 10
102.869
 20
65.0462
 30
0.0
 11
114.869
 21
65.0462
 31
0.0
  0
LINE
  8
0
 62
     0
 10
114.869
 20
65.0462
 30
0.0
 11
114.869
 21
65.647
 31
0.0
  0
LINE
  8
0
 62
     0
 10
114.869
 20
65.647
 30
0.0
 11
115.67
 21
65.647
 31
0.0
  0
LINE
  8
0
 62
     0
 10
115.67
 20
65.647
 30
0.0
 11
115.67
 21
76.4466
 31
0.0
  0
LINE
  8
0
 62
     0
 10
115.67
 20
76.4466
 30
0.0
 11
114.869
 21
76.4466
 31
0.0
  0
LINE
  8
0
 62
     0
 10
114.869
 20
76.4466
 30
0.0
 11
114.869
 21
77.0474
 31
0.0
  0
LINE
  8
0
 62
     0
 10
114.869
 20
77.0474
 30
0.0
 11
102.869
 21
77.0474
 31
0.0
  0
LINE
  8
0
 62
     0
 10
121.919
 20
77.0474
 30
0.0
 11
121.919
 21
76.4466
 31
0.0
  0
LINE
  8
0
 62
     0
 10
121.919
 20
76.4466
 30
0.0
 11
121.12
 21
76.4466
 31
0.0
  0
LINE
  8
0
 62
     0
 10
121.12
 20
76.4466
 30
0.0
 11
121.12
 21
65.647
 31
0.0
  0
LINE
  8
0
 62
     0
 10
121.12
 20
65.647
 30
0.0
 11
121.919
 21
65.647
 31
0.0
  0
LINE
  8
0
 62
     0
 10
121.919
 20
65.647
 30
0.0
 11
121.919
 21
65.0462
 31
0.0
  0
LINE
  8
0
 62
     0
 10
121.919
 20
65.0462
 30
0.0
 11
133.92
 21
65.0462
 31
0.0
  0
LINE
  8
0
 62
     0
 10
133.92
 20
65.0462
 30
0.0
 11
133.92
 21
65.647
 31
0.0
  0
LINE
  8
0
 62
     0
 10
133.92
 20
65.647
 30
0.0
 11
134.721
 21
65.647
 31
0.0
  0
LINE
  8
0
 62
     0
 10
134.721
 20
65.647
 30
0.0
 11
134.721
 21
76.4466
 31
0.0
  0
LINE
  8
0
 62
     0
 10
134.721
 20
76.4466
 30
0.0
 11
133.92
 21
76.4466
 31
0.0
  0
LINE
  8
0
 62
     0
 10
133.92
 20
76.4466
 30
0.0
 11
133.92
 21
77.0474
 31
0.0
  0
LINE
  8
0
 62
     0
 10
133.92
 20
77.0474
 30
0.0
 11
121.919
 21
77.0474
 31
0.0
  0
LINE
  8
0
 62
     0
 10
140.971
 20
77.0474
 30
0.0
 11
140.971
 21
76.4466
 31
0.0
  0
LINE
  8
0
 62
     0
 10
140.971
 20
76.4466
 30
0.0
 11
140.17
 21
76.4466
 31
0.0
  0
LINE
  8
0
 62
     0
 10
140.17
 20
76.4466
 30
0.0
 11
140.17
 21
65.647
 31
0.0
  0
LINE
  8
0
 62
     0
 10
140.17
 20
65.647
 30
0.0
 11
140.971
 21
65.647
 31
0.0
  0
LINE
  8
0
 62
     0
 10
140.971
 20
65.647
 30
0.0
 11
140.971
 21
65.0462
 31
0.0
  0
LINE
  8
0
 62
     0
 10
140.971
 20
65.0462
 30
0.0
 11
152.97
 21
65.0462
 31
0.0
  0
LINE
  8
0
 62
     0
 10
152.97
 20
65.0462
 30
0.0
 11
152.97
 21
65.647
 31
0.0
  0
LINE
  8
0
 62
     0
 10
152.97
 20
65.647
 30
0.0
 11
153.771
 21
65.647
 31
0.0
  0
LINE
  8
0
 62
     0
 10
153.771
 20
65.647
 30
0.0
 11
153.771
 21
76.4466
 31
0.0
  0
LINE
  8
0
 62
     0
 10
153.771
 20
76.4466
 30
0.0
 11
152.97
 21
76.4466
 31
0.0
  0
LINE
  8
0
 62
     0
 10
152.97
 20
76.4466
 30
0.0
 11
152.97
 21
77.0474
 31
0.0
  0
LINE
  8
0
 62
     0
 10
152.97
 20
77.0474
 30
0.0
 11
140.971
 21
77.0474
 31
0.0
  0
LINE
  8
0
 62
     0
 10
160.021
 20
77.0474
 30
0.0
 11
160.021
 21
76.4466
 31
0.0
  0
LINE
  8
0
 62
     0
 10
160.021
 20
76.4466
 30
0.0
 11
159.22
 21
76.4466
 31
0.0
  0
LINE
  8
0
 62
     0
 10
159.22
 20
76.4466
 30
0.0
 11
159.22
 21
65.647
 31
0.0
  0
LINE
  8
0
 62
     0
 10
159.22
 20
65.647
 30
0.0
 11
160.021
 21
65.647
 31
0.0
  0
LINE
  8
0
 62
     0
 10
160.021
 20
65.647
 30
0.0
 11
160.021
 21
65.0462
 31
0.0
  0
LINE
  8
0
 62
     0
 10
160.021
 20
65.0462
 30
0.0
 11
172.02
 21
65.0462
 31
0.0
  0
LINE
  8
0
 62
     0
 10
172.02
 20
65.0462
 30
0.0
 11
172.02
 21
65.647
 31
0.0
  0
LINE
  8
0
 62
     0
 10
172.02
 20
65.647
 30
0.0
 11
172.821
 21
65.647
 31
0.0
  0
LINE
  8
0
 62
     0
 10
172.821
 20
65.647
 30
0.0
 11
172.821
 21
76.4466
 31
0.0
  0
LINE
  8
0
 62
     0
 10
172.821
 20
76.4466
 30
0.0
 11
172.02
 21
76.4466
 31
0.0
  0
LINE
  8
0
 62
     0
 10
172.02
 20
76.4466
 30
0.0
 11
172.02
 21
77.0474
 31
0.0
  0
LINE
  8
0
 62
     0
 10
172.02
 20
77.0474
 30
0.0
 11
160.021
 21
77.0474
 31
0.0
  0
LINE
  8
0
 62
     0
 10
179.071
 20
77.0474
 30
0.0
 11
179.071
 21
76.4466
 31
0.0
  0
LINE
  8
0
 62
     0
 10
179.071
 20
76.4466
 30
0.0
 11
178.27
 21
76.4466
 31
0.0
  0
LINE
  8
0
 62
     0
 10
178.27
 20
76.4466
 30
0.0
 11
178.27
 21
65.647
 31
0.0
  0
LINE
  8
0
 62
     0
 10
178.27
 20
65.647
 30
0.0
 11
179.071
 21
65.647
 31
0.0
  0
LINE
  8
0
 62
     0
 10
179.071
 20
65.647
 30
0.0
 11
179.071
 21
65.0462
 31
0.0
  0
LINE
  8
0
 62
     0
 10
179.071
 20
65.0462
 30
0.0
 11
191.07
 21
65.0462
 31
0.0
  0
LINE
  8
0
 62
     0
 10
191.07
 20
65.0462
 30
0.0
 11
191.07
 21
65.647
 31
0.0
  0
LINE
  8
0
 62
     0
 10
191.07
 20
65.647
 30
0.0
 11
191.871
 21
65.647
 31
0.0
  0
LINE
  8
0
 62
     0
 10
191.871
 20
65.647
 30
0.0
 11
191.871
 21
76.4466
 31
0.0
  0
LINE
  8
0
 62
     0
 10
191.871
 20
76.4466
 30
0.0
 11
191.07
 21
76.4466
 31
0.0
  0
LINE
  8
0
 62
     0
 10
191.07
 20
76.4466
 30
0.0
 11
191.07
 21
77.0474
 31
0.0
  0
LINE
  8
0
 62
     0
 10
191.07
 20
77.0474
 30
0.0
 11
179.071
 21
77.0474
 31
0.0
  0
LINE
  8
0
 62
     0
 10
198.121
 20
77.0474
 30
0.0
 11
198.121
 21
76.4466
 31
0.0
  0
LINE
  8
0
 62
     0
 10
198.121
 20
76.4466
 30
0.0
 11
197.32
 21
76.4466
 31
0.0
  0
LINE
  8
0
 62
     0
 10
197.32
 20
76.4466
 30
0.0
 11
197.32
 21
65.647
 31
0.0
  0
LINE
  8
0
 62
     0
 10
197.32
 20
65.647
 30
0.0
 11
198.121
 21
65.647
 31
0.0
  0
LINE
  8
0
 62
     0
 10
198.121
 20
65.647
 30
0.0
 11
198.121
 21
65.0462
 31
0.0
  0
LINE
  8
0
 62
     0
 10
198.121
 20
65.0462
 30
0.0
 11
210.12
 21
65.0462
 31
0.0
  0
LINE
  8
0
 62
     0
 10
210.12
 20
65.0462
 30
0.0
 11
210.12
 21
65.647
 31
0.0
  0
LINE
  8
0
 62
     0
 10
210.12
 20
65.647
 30
0.0
 11
210.921
 21
65.647
 31
0.0
  0
LINE
  8
0
 62
     0
 10
210.921
 20
65.647
 30
0.0
 11
210.921
 21
76.4466
 31
0.0
  0
LINE
  8
0
 62
     0
 10
210.921
 20
76.4466
 30
0.0
 11
210.12
 21
76.4466
 31
0.0
  0
LINE
  8
0
 62
     0
 10
210.12
 20
76.4466
 30
0.0
 11
210.12
 21
77.0474
 31
0.0
  0
LINE
  8
0
 62
     0
 10
210.12
 20
77.0474
 30
0.0
 11
198.121
 21
77.0474
 31
0.0
  0
LINE
  8
0
 62
     0
 10
217.171
 20
77.0474
 30
0.0
 11
217.171
 21
76.4466
 31
0.0
  0
LINE
  8
0
 62
     0
 10
217.171
 20
76.4466
 30
0.0
 11
216.37
 21
76.4466
 31
0.0
  0
LINE
  8
0
 62
     0
 10
216.37
 20
76.4466
 30
0.0
 11
216.37
 21
65.647
 31
0.0
  0
LINE
  8
0
 62
     0
 10
216.37
 20
65.647
 30
0.0
 11
217.171
 21
65.647
 31
0.0
  0
LINE
  8
0
 62
     0
 10
217.171
 20
65.647
 30
0.0
 11
217.171
 21
65.0462
 31
0.0
  0
LINE
  8
0
 62
     0
 10
217.171
 20
65.0462
 30
0.0
 11
229.17
 21
65.0462
 31
0.0
  0
LINE
  8
0
 62
     0
 10
229.17
 20
65.0462
 30
0.0
 11
229.17
 21
65.647
 31
0.0
  0
LINE
  8
0
 62
     0
 10
229.17
 20
65.647
 30
0.0
 11
229.971
 21
65.647
 31
0.0
  0
LINE
  8
0
 62
     0
 10
229.971
 20
65.647
 30
0.0
 11
229.971
 21
76.4466
 31
0.0
  0
LINE
  8
0
 62
     0
 10
229.971
 20
76.4466
 30
0.0
 11
229.17
 21
76.4466
 31
0.0
  0
LINE
  8
0
 62
     0
 10
229.17
 20
76.4466
 30
0.0
 11
229.17
 21
77.0474
 31
0.0
  0
LINE
  8
0
 62
     0
 10
229.17
 20
77.0474
 30
0.0
 11
217.171
 21
77.0474
 31
0.0
  0
ENDSEC
  0
EOF
